<svg xmlns="http://www.w3.org/2000/svg" id="export" class="canvas" preserveAspectRatio="xMidYMid meet" style="" width="119" height="743"><rect id="background" fill="#fff" pointer-events="all" width="119" height="743"/><g id="origin" transform="translate(5.38968734741211, 5.3896883010864265) scale(1)"><g id="clusters" class="clusters"/><g id="edge-paths" class="edge-paths"><defs><marker id="arrowhead" viewBox="0 0 10 10" refX="9" refY="5" markerUnits="strokeWidth" markerWidth="8" markerHeight="6" orient="auto" style="fill: rgb(0, 0, 0);"><path d="M 0 0 L 10 5 L 0 10 L 4 5 z" style="stroke-width: 1px;"/></marker><marker id="arrowhead-select" viewBox="0 0 10 10" refX="9" refY="5" markerUnits="strokeWidth" markerWidth="8" markerHeight="6" orient="auto" style="fill: rgba(220, 0, 0, 0.9);"><path d="M 0 0 L 10 5 L 0 10 L 4 5 z" style="stroke-width: 1px;"/></marker><marker id="arrowhead-hover" viewBox="0 0 10 10" refX="9" refY="5" markerUnits="strokeWidth" markerWidth="8" markerHeight="6" orient="auto" style="fill: rgba(220, 0, 0, 0.9);"><path d="M 0 0 L 10 5 L 0 10 L 4 5 z" style="stroke-width: 1px;"/></marker></defs><path id="edge-input_layer" class="edge-path" d="M53.896873474121094,20.980000495910645L53.896873474121094,22.646667162577312C53.896873474121094,24.313333829243977,53.896873474121094,27.646667162577312,53.896873474121094,30.980000495910645C53.896873474121094,34.31333382924398,53.896873474121094,37.64666716257731,53.896873474121094,40.980000495910645C53.896873474121094,44.31333382924398,53.896873474121094,47.64666716257731,53.896873474121094,50.980000495910645C53.896873474121094,54.31333382924398,53.896873474121094,57.64666716257731,53.896873474121094,59.31333382924398L53.896873474121094,60.980000495910645" style="stroke: rgb(0, 0, 0); stroke-width: 1px; fill: none; marker-end: url(&quot;#arrowhead&quot;);"/><path class="edge-path-hit-test" d="M53.896873474121094,20.980000495910645L53.896873474121094,22.646667162577312C53.896873474121094,24.313333829243977,53.896873474121094,27.646667162577312,53.896873474121094,30.980000495910645C53.896873474121094,34.31333382924398,53.896873474121094,37.64666716257731,53.896873474121094,40.980000495910645C53.896873474121094,44.31333382924398,53.896873474121094,47.64666716257731,53.896873474121094,50.980000495910645C53.896873474121094,54.31333382924398,53.896873474121094,57.64666716257731,53.896873474121094,59.31333382924398L53.896873474121094,60.980000495910645" style="pointer-events: stroke; stroke-width: 0.5em; fill: none; stroke: rgb(0, 0, 0); stroke-opacity: 0.001;"/><path id="edge-conv2d_1" class="edge-path" d="M53.896873474121094,138.1400022506714L53.896873474121094,139.80666891733804C53.896873474121094,141.47333558400473,53.896873474121094,144.80666891733804,53.896873474121094,148.1400022506714C53.896873474121094,151.47333558400473,53.896873474121094,154.80666891733804,53.896873474121094,156.47333558400473L53.896873474121094,158.1400022506714" style="stroke: rgb(0, 0, 0); stroke-width: 1px; fill: none; marker-end: url(&quot;#arrowhead&quot;);"/><path class="edge-path-hit-test" d="M53.896873474121094,138.1400022506714L53.896873474121094,139.80666891733804C53.896873474121094,141.47333558400473,53.896873474121094,144.80666891733804,53.896873474121094,148.1400022506714C53.896873474121094,151.47333558400473,53.896873474121094,154.80666891733804,53.896873474121094,156.47333558400473L53.896873474121094,158.1400022506714" style="pointer-events: stroke; stroke-width: 0.5em; fill: none; stroke: rgb(0, 0, 0); stroke-opacity: 0.001;"/><path id="edge-maxpooling2d_1" class="edge-path" d="M53.896873474121094,179.12000274658203L53.896873474121094,180.7866694132487C53.896873474121094,182.45333607991537,53.896873474121094,185.7866694132487,53.896873474121094,189.12000274658203C53.896873474121094,192.45333607991537,53.896873474121094,195.7866694132487,53.896873474121094,197.45333607991537L53.896873474121094,199.12000274658203" style="stroke: rgb(0, 0, 0); stroke-width: 1px; fill: none; marker-end: url(&quot;#arrowhead&quot;);"/><path class="edge-path-hit-test" d="M53.896873474121094,179.12000274658203L53.896873474121094,180.7866694132487C53.896873474121094,182.45333607991537,53.896873474121094,185.7866694132487,53.896873474121094,189.12000274658203C53.896873474121094,192.45333607991537,53.896873474121094,195.7866694132487,53.896873474121094,197.45333607991537L53.896873474121094,199.12000274658203" style="pointer-events: stroke; stroke-width: 0.5em; fill: none; stroke: rgb(0, 0, 0); stroke-opacity: 0.001;"/><path id="edge-conv2d_2" class="edge-path" d="M53.896873474121094,276.2800045013428L53.896873474121094,277.94667116800946C53.896873474121094,279.6133378346761,53.896873474121094,282.94667116800946,53.896873474121094,286.2800045013428C53.896873474121094,289.6133378346761,53.896873474121094,292.94667116800946,53.896873474121094,294.6133378346761L53.896873474121094,296.2800045013428" style="stroke: rgb(0, 0, 0); stroke-width: 1px; fill: none; marker-end: url(&quot;#arrowhead&quot;);"/><path class="edge-path-hit-test" d="M53.896873474121094,276.2800045013428L53.896873474121094,277.94667116800946C53.896873474121094,279.6133378346761,53.896873474121094,282.94667116800946,53.896873474121094,286.2800045013428C53.896873474121094,289.6133378346761,53.896873474121094,292.94667116800946,53.896873474121094,294.6133378346761L53.896873474121094,296.2800045013428" style="pointer-events: stroke; stroke-width: 0.5em; fill: none; stroke: rgb(0, 0, 0); stroke-opacity: 0.001;"/><path id="edge-maxpooling2d_2" class="edge-path" d="M53.896873474121094,317.2600049972534L53.896873474121094,318.9266716639201C53.896873474121094,320.59333833058673,53.896873474121094,323.9266716639201,53.896873474121094,327.2600049972534C53.896873474121094,330.59333833058673,53.896873474121094,333.9266716639201,53.896873474121094,335.59333833058673L53.896873474121094,337.2600049972534" style="stroke: rgb(0, 0, 0); stroke-width: 1px; fill: none; marker-end: url(&quot;#arrowhead&quot;);"/><path class="edge-path-hit-test" d="M53.896873474121094,317.2600049972534L53.896873474121094,318.9266716639201C53.896873474121094,320.59333833058673,53.896873474121094,323.9266716639201,53.896873474121094,327.2600049972534C53.896873474121094,330.59333833058673,53.896873474121094,333.9266716639201,53.896873474121094,335.59333833058673L53.896873474121094,337.2600049972534" style="pointer-events: stroke; stroke-width: 0.5em; fill: none; stroke: rgb(0, 0, 0); stroke-opacity: 0.001;"/><path id="edge-conv2d_3" class="edge-path" d="M53.896873474121094,414.42000675201416L53.896873474121094,416.08667341868085C53.896873474121094,417.7533400853475,53.896873474121094,421.08667341868085,53.896873474121094,424.42000675201416C53.896873474121094,427.7533400853475,53.896873474121094,431.08667341868085,53.896873474121094,432.7533400853475L53.896873474121094,434.42000675201416" style="stroke: rgb(0, 0, 0); stroke-width: 1px; fill: none; marker-end: url(&quot;#arrowhead&quot;);"/><path class="edge-path-hit-test" d="M53.896873474121094,414.42000675201416L53.896873474121094,416.08667341868085C53.896873474121094,417.7533400853475,53.896873474121094,421.08667341868085,53.896873474121094,424.42000675201416C53.896873474121094,427.7533400853475,53.896873474121094,431.08667341868085,53.896873474121094,432.7533400853475L53.896873474121094,434.42000675201416" style="pointer-events: stroke; stroke-width: 0.5em; fill: none; stroke: rgb(0, 0, 0); stroke-opacity: 0.001;"/><path id="edge-maxpooling2d_3" class="edge-path" d="M53.896873474121094,455.4000072479248L53.896873474121094,457.0666739145915C53.896873474121094,458.7333405812581,53.896873474121094,462.0666739145915,53.896873474121094,465.4000072479248C53.896873474121094,468.7333405812581,53.896873474121094,472.0666739145915,53.896873474121094,473.7333405812581L53.896873474121094,475.4000072479248" style="stroke: rgb(0, 0, 0); stroke-width: 1px; fill: none; marker-end: url(&quot;#arrowhead&quot;);"/><path class="edge-path-hit-test" d="M53.896873474121094,455.4000072479248L53.896873474121094,457.0666739145915C53.896873474121094,458.7333405812581,53.896873474121094,462.0666739145915,53.896873474121094,465.4000072479248C53.896873474121094,468.7333405812581,53.896873474121094,472.0666739145915,53.896873474121094,473.7333405812581L53.896873474121094,475.4000072479248" style="pointer-events: stroke; stroke-width: 0.5em; fill: none; stroke: rgb(0, 0, 0); stroke-opacity: 0.001;"/><path id="edge-flatten" class="edge-path" d="M53.896873474121094,496.38000774383545L53.896873474121094,498.04667441050213C53.896873474121094,499.71334107716876,53.896873474121094,503.04667441050213,53.896873474121094,506.38000774383545C53.896873474121094,509.71334107716876,53.896873474121094,513.0466744105021,53.896873474121094,514.7133410771688L53.896873474121094,516.3800077438354" style="stroke: rgb(0, 0, 0); stroke-width: 1px; fill: none; marker-end: url(&quot;#arrowhead&quot;);"/><path class="edge-path-hit-test" d="M53.896873474121094,496.38000774383545L53.896873474121094,498.04667441050213C53.896873474121094,499.71334107716876,53.896873474121094,503.04667441050213,53.896873474121094,506.38000774383545C53.896873474121094,509.71334107716876,53.896873474121094,513.0466744105021,53.896873474121094,514.7133410771688L53.896873474121094,516.3800077438354" style="pointer-events: stroke; stroke-width: 0.5em; fill: none; stroke: rgb(0, 0, 0); stroke-opacity: 0.001;"/><path id="edge-dense_1" class="edge-path" d="M53.896873474121094,593.5400094985962L53.896873474121094,595.2066761652628C53.896873474121094,596.8733428319296,53.896873474121094,600.2066761652628,53.896873474121094,603.5400094985962C53.896873474121094,606.8733428319296,53.896873474121094,610.2066761652628,53.896873474121094,611.8733428319296L53.896873474121094,613.5400094985962" style="stroke: rgb(0, 0, 0); stroke-width: 1px; fill: none; marker-end: url(&quot;#arrowhead&quot;);"/><path class="edge-path-hit-test" d="M53.896873474121094,593.5400094985962L53.896873474121094,595.2066761652628C53.896873474121094,596.8733428319296,53.896873474121094,600.2066761652628,53.896873474121094,603.5400094985962C53.896873474121094,606.8733428319296,53.896873474121094,610.2066761652628,53.896873474121094,611.8733428319296L53.896873474121094,613.5400094985962" style="pointer-events: stroke; stroke-width: 0.5em; fill: none; stroke: rgb(0, 0, 0); stroke-opacity: 0.001;"/><path id="edge-output_layer" class="edge-path" d="M53.896873474121094,690.7000112533569L53.896873474121094,692.3666779200236C53.896873474121094,694.0333445866903,53.896873474121094,697.3666779200236,53.896873474121094,700.7000112533569C53.896873474121094,704.0333445866903,53.896873474121094,707.3666779200236,53.896873474121094,709.0333445866903L53.896873474121094,710.7000112533569" style="stroke: rgb(0, 0, 0); stroke-width: 1px; fill: none; marker-end: url(&quot;#arrowhead&quot;);"/><path class="edge-path-hit-test" d="M53.896873474121094,690.7000112533569L53.896873474121094,692.3666779200236C53.896873474121094,694.0333445866903,53.896873474121094,697.3666779200236,53.896873474121094,700.7000112533569C53.896873474121094,704.0333445866903,53.896873474121094,707.3666779200236,53.896873474121094,709.0333445866903L53.896873474121094,710.7000112533569" style="pointer-events: stroke; stroke-width: 0.5em; fill: none; stroke: rgb(0, 0, 0); stroke-opacity: 0.001;"/></g><g id="edge-labels" class="edge-labels"/><g id="nodes" class="nodes"><g id="input-name-input_layer" class="node graph-input" style="" transform="translate(21.375497817993164,0)"><g class="node-item graph-item-input" transform="translate(0,0)"><path d="M5,0h55.04275131225586a5,5 0 0 1 5,5v10.980000495910645a5,5 0 0 1 -5,5h-55.04275131225586a5,5 0 0 1 -5,-5v-10.980000495910645a5,5 0 0 1 5,-5z" style="stroke: rgb(0, 0, 0); fill: rgb(238, 238, 238); stroke-width: 0px;"/><text x="6" y="14.642499923706055" style="font-family: -apple-system, BlinkMacSystemFont, &quot;Segoe WPC&quot;, &quot;Segoe UI&quot;, &quot;Ubuntu&quot;, &quot;Droid Sans&quot;, sans-serif, &quot;PingFang SC&quot;; font-size: 11px; text-rendering: geometricprecision; user-select: none;">input_layer</text><title>float32</title></g><path class="node node-border" d="M5,0h55.04275131225586a5,5 0 0 1 5,5v10.980000495910645a5,5 0 0 1 -5,5h-55.04275131225586a5,5 0 0 1 -5,-5v-10.980000495910645a5,5 0 0 1 5,-5z" style="stroke: rgb(51, 51, 51); fill: none; stroke-width: 1px;"/></g><g id="node-name-conv2d_1" class="node graph-node" style="" transform="translate(4.8641204833984375,60.980000495910645)"><g class="node-item node-item-type node-item-type-layer" transform="translate(0,0)"><path d="M5,0h88.06550598144531a5,5 0 0 1 5,5v15.980000495910645a0,0 0 0 1 0,0h-98.06550598144531a0,0 0 0 1 0,0v-15.980000495910645a5,5 0 0 1 5,-5z" style="stroke: rgb(0, 0, 0); fill: rgb(51, 85, 136); stroke-width: 0px;"/><text x="6" y="14.642499923706055" style="font-family: -apple-system, BlinkMacSystemFont, &quot;Segoe WPC&quot;, &quot;Segoe UI&quot;, &quot;Ubuntu&quot;, &quot;Droid Sans&quot;, sans-serif, &quot;PingFang SC&quot;; font-size: 11px; text-rendering: geometricprecision; user-select: none; fill: rgb(255, 255, 255);">Conv2D</text><title>conv2d_1</title></g><g class="node-argument-list" transform="translate(0,20.980000495910645)"><path d="M0,0h98.06550598144531a0,0 0 0 1 0,0v35.20000076293945a0,0 0 0 1 0,0h-98.06550598144531a0,0 0 0 1 0,0v-35.20000076293945a0,0 0 0 1 0,0z" style="stroke: rgb(0, 0, 0); fill: rgb(255, 255, 255); stroke-width: 0px;"/><g class="node-argument"><rect rx="3" ry="3" x="3" y="3" width="92.06550598144531" height="14.600000381469727" style="fill: transparent;"/><text xml:space="preserve" x="6" y="13.539999961853027" style="font-family: -apple-system, BlinkMacSystemFont, &quot;Segoe WPC&quot;, &quot;Segoe UI&quot;, &quot;Ubuntu&quot;, &quot;Droid Sans&quot;, sans-serif, &quot;PingFang SC&quot;; font-size: 9px; font-weight: normal; text-rendering: geometricprecision; user-select: none;"><title>float32[3,3,3,32]</title><tspan style="font-weight: bold;">kernel</tspan><tspan>〈3×3×3×32〉</tspan></text></g><g class="node-argument"><rect rx="3" ry="3" x="3" y="17.600000381469727" width="92.06550598144531" height="14.600000381469727" style="fill: transparent;"/><text xml:space="preserve" x="6" y="28.140000343322754" style="font-family: -apple-system, BlinkMacSystemFont, &quot;Segoe WPC&quot;, &quot;Segoe UI&quot;, &quot;Ubuntu&quot;, &quot;Droid Sans&quot;, sans-serif, &quot;PingFang SC&quot;; font-size: 9px; font-weight: normal; text-rendering: geometricprecision; user-select: none;"><title>float32[32]</title><tspan style="font-weight: bold;">bias</tspan><tspan>〈32〉</tspan></text></g><line class="node" x1="0" x2="98.06550598144531" y1="0" y2="0" style="stroke: rgb(51, 51, 51); fill: none; stroke-width: 1px;"/></g><g class="node-item node-item-type node-item-type-activation" transform="translate(0,56.1800012588501)"><path d="M0,0h98.06550598144531a0,0 0 0 1 0,0v15.980000495910645a5,5 0 0 1 -5,5h-88.06550598144531a5,5 0 0 1 -5,-5v-15.980000495910645a0,0 0 0 1 0,0z" style="stroke: rgb(0, 0, 0); fill: rgb(112, 41, 33); stroke-width: 0px;"/><text x="6" y="14.642499923706055" style="font-family: -apple-system, BlinkMacSystemFont, &quot;Segoe WPC&quot;, &quot;Segoe UI&quot;, &quot;Ubuntu&quot;, &quot;Droid Sans&quot;, sans-serif, &quot;PingFang SC&quot;; font-size: 11px; text-rendering: geometricprecision; user-select: none; fill: rgb(255, 255, 255);">Activation</text></g><line class="node" x1="0" x2="98.06550598144531" y1="56.1800012588501" y2="56.1800012588501" style="stroke: rgb(51, 51, 51); fill: none; stroke-width: 1px;"/><path class="node node-border" d="M5,0h88.06550598144531a5,5 0 0 1 5,5v67.16000175476074a5,5 0 0 1 -5,5h-88.06550598144531a5,5 0 0 1 -5,-5v-67.16000175476074a5,5 0 0 1 5,-5z" style="stroke: rgb(51, 51, 51); fill: none; stroke-width: 1px;"/></g><g id="node-name-maxpooling2d_1" class="node graph-node" style="" transform="translate(13.116790771484375,158.1400022506714)"><g class="node-item node-item-type node-item-type-pool" transform="translate(0,0)"><path d="M5,0h71.56016540527344a5,5 0 0 1 5,5v10.980000495910645a5,5 0 0 1 -5,5h-71.56016540527344a5,5 0 0 1 -5,-5v-10.980000495910645a5,5 0 0 1 5,-5z" style="stroke: rgb(0, 0, 0); fill: rgb(51, 85, 51); stroke-width: 0px;"/><text x="6" y="14.642499923706055" style="font-family: -apple-system, BlinkMacSystemFont, &quot;Segoe WPC&quot;, &quot;Segoe UI&quot;, &quot;Ubuntu&quot;, &quot;Droid Sans&quot;, sans-serif, &quot;PingFang SC&quot;; font-size: 11px; text-rendering: geometricprecision; user-select: none; fill: rgb(255, 255, 255);">MaxPooling2D</text><title>maxpooling2d_1</title></g><path class="node node-border" d="M5,0h71.56016540527344a5,5 0 0 1 5,5v10.980000495910645a5,5 0 0 1 -5,5h-71.56016540527344a5,5 0 0 1 -5,-5v-10.980000495910645a5,5 0 0 1 5,-5z" style="stroke: rgb(51, 51, 51); fill: none; stroke-width: 1px;"/></g><g id="node-name-conv2d_2" class="node graph-node" style="" transform="translate(2.029876708984375,199.12000274658203)"><g class="node-item node-item-type node-item-type-layer" transform="translate(0,0)"><path d="M5,0h93.73399353027344a5,5 0 0 1 5,5v15.980000495910645a0,0 0 0 1 0,0h-103.73399353027344a0,0 0 0 1 0,0v-15.980000495910645a5,5 0 0 1 5,-5z" style="stroke: rgb(0, 0, 0); fill: rgb(51, 85, 136); stroke-width: 0px;"/><text x="6" y="14.642499923706055" style="font-family: -apple-system, BlinkMacSystemFont, &quot;Segoe WPC&quot;, &quot;Segoe UI&quot;, &quot;Ubuntu&quot;, &quot;Droid Sans&quot;, sans-serif, &quot;PingFang SC&quot;; font-size: 11px; text-rendering: geometricprecision; user-select: none; fill: rgb(255, 255, 255);">Conv2D</text><title>conv2d_2</title></g><g class="node-argument-list" transform="translate(0,20.980000495910645)"><path d="M0,0h103.73399353027344a0,0 0 0 1 0,0v35.20000076293945a0,0 0 0 1 0,0h-103.73399353027344a0,0 0 0 1 0,0v-35.20000076293945a0,0 0 0 1 0,0z" style="stroke: rgb(0, 0, 0); fill: rgb(255, 255, 255); stroke-width: 0px;"/><g class="node-argument"><rect rx="3" ry="3" x="3" y="3" width="97.73399353027344" height="14.600000381469727" style="fill: transparent;"/><text xml:space="preserve" x="6" y="13.539999961853027" style="font-family: -apple-system, BlinkMacSystemFont, &quot;Segoe WPC&quot;, &quot;Segoe UI&quot;, &quot;Ubuntu&quot;, &quot;Droid Sans&quot;, sans-serif, &quot;PingFang SC&quot;; font-size: 9px; font-weight: normal; text-rendering: geometricprecision; user-select: none;"><title>float32[3,3,32,64]</title><tspan style="font-weight: bold;">kernel</tspan><tspan>〈3×3×32×64〉</tspan></text></g><g class="node-argument"><rect rx="3" ry="3" x="3" y="17.600000381469727" width="97.73399353027344" height="14.600000381469727" style="fill: transparent;"/><text xml:space="preserve" x="6" y="28.140000343322754" style="font-family: -apple-system, BlinkMacSystemFont, &quot;Segoe WPC&quot;, &quot;Segoe UI&quot;, &quot;Ubuntu&quot;, &quot;Droid Sans&quot;, sans-serif, &quot;PingFang SC&quot;; font-size: 9px; font-weight: normal; text-rendering: geometricprecision; user-select: none;"><title>float32[64]</title><tspan style="font-weight: bold;">bias</tspan><tspan>〈64〉</tspan></text></g><line class="node" x1="0" x2="103.73399353027344" y1="0" y2="0" style="stroke: rgb(51, 51, 51); fill: none; stroke-width: 1px;"/></g><g class="node-item node-item-type node-item-type-activation" transform="translate(0,56.1800012588501)"><path d="M0,0h103.73399353027344a0,0 0 0 1 0,0v15.980000495910645a5,5 0 0 1 -5,5h-93.73399353027344a5,5 0 0 1 -5,-5v-15.980000495910645a0,0 0 0 1 0,0z" style="stroke: rgb(0, 0, 0); fill: rgb(112, 41, 33); stroke-width: 0px;"/><text x="6" y="14.642499923706055" style="font-family: -apple-system, BlinkMacSystemFont, &quot;Segoe WPC&quot;, &quot;Segoe UI&quot;, &quot;Ubuntu&quot;, &quot;Droid Sans&quot;, sans-serif, &quot;PingFang SC&quot;; font-size: 11px; text-rendering: geometricprecision; user-select: none; fill: rgb(255, 255, 255);">Activation</text></g><line class="node" x1="0" x2="103.73399353027344" y1="56.1800012588501" y2="56.1800012588501" style="stroke: rgb(51, 51, 51); fill: none; stroke-width: 1px;"/><path class="node node-border" d="M5,0h93.73399353027344a5,5 0 0 1 5,5v67.16000175476074a5,5 0 0 1 -5,5h-93.73399353027344a5,5 0 0 1 -5,-5v-67.16000175476074a5,5 0 0 1 5,-5z" style="stroke: rgb(51, 51, 51); fill: none; stroke-width: 1px;"/></g><g id="node-name-maxpooling2d_2" class="node graph-node" style="" transform="translate(13.116790771484375,296.2800045013428)"><g class="node-item node-item-type node-item-type-pool" transform="translate(0,0)"><path d="M5,0h71.56016540527344a5,5 0 0 1 5,5v10.980000495910645a5,5 0 0 1 -5,5h-71.56016540527344a5,5 0 0 1 -5,-5v-10.980000495910645a5,5 0 0 1 5,-5z" style="stroke: rgb(0, 0, 0); fill: rgb(51, 85, 51); stroke-width: 0px;"/><text x="6" y="14.642499923706055" style="font-family: -apple-system, BlinkMacSystemFont, &quot;Segoe WPC&quot;, &quot;Segoe UI&quot;, &quot;Ubuntu&quot;, &quot;Droid Sans&quot;, sans-serif, &quot;PingFang SC&quot;; font-size: 11px; text-rendering: geometricprecision; user-select: none; fill: rgb(255, 255, 255);">MaxPooling2D</text><title>maxpooling2d_2</title></g><path class="node node-border" d="M5,0h71.56016540527344a5,5 0 0 1 5,5v10.980000495910645a5,5 0 0 1 -5,5h-71.56016540527344a5,5 0 0 1 -5,-5v-10.980000495910645a5,5 0 0 1 5,-5z" style="stroke: rgb(51, 51, 51); fill: none; stroke-width: 1px;"/></g><g id="node-name-conv2d_3" class="node graph-node" style="" transform="translate(0,337.2600049972534)"><g class="node-item node-item-type node-item-type-layer" transform="translate(0,0)"><path d="M5,0h97.79374694824219a5,5 0 0 1 5,5v15.980000495910645a0,0 0 0 1 0,0h-107.79374694824219a0,0 0 0 1 0,0v-15.980000495910645a5,5 0 0 1 5,-5z" style="stroke: rgb(0, 0, 0); fill: rgb(51, 85, 136); stroke-width: 0px;"/><text x="6" y="14.642499923706055" style="font-family: -apple-system, BlinkMacSystemFont, &quot;Segoe WPC&quot;, &quot;Segoe UI&quot;, &quot;Ubuntu&quot;, &quot;Droid Sans&quot;, sans-serif, &quot;PingFang SC&quot;; font-size: 11px; text-rendering: geometricprecision; user-select: none; fill: rgb(255, 255, 255);">Conv2D</text><title>conv2d_3</title></g><g class="node-argument-list" transform="translate(0,20.980000495910645)"><path d="M0,0h107.79374694824219a0,0 0 0 1 0,0v35.20000076293945a0,0 0 0 1 0,0h-107.79374694824219a0,0 0 0 1 0,0v-35.20000076293945a0,0 0 0 1 0,0z" style="stroke: rgb(0, 0, 0); fill: rgb(255, 255, 255); stroke-width: 0px;"/><g class="node-argument"><rect rx="3" ry="3" x="3" y="3" width="101.79374694824219" height="14.600000381469727" style="fill: transparent;"/><text xml:space="preserve" x="6" y="13.539999961853027" style="font-family: -apple-system, BlinkMacSystemFont, &quot;Segoe WPC&quot;, &quot;Segoe UI&quot;, &quot;Ubuntu&quot;, &quot;Droid Sans&quot;, sans-serif, &quot;PingFang SC&quot;; font-size: 9px; font-weight: normal; text-rendering: geometricprecision; user-select: none;"><title>float32[3,3,64,128]</title><tspan style="font-weight: bold;">kernel</tspan><tspan>〈3×3×64×128〉</tspan></text></g><g class="node-argument"><rect rx="3" ry="3" x="3" y="17.600000381469727" width="101.79374694824219" height="14.600000381469727" style="fill: transparent;"/><text xml:space="preserve" x="6" y="28.140000343322754" style="font-family: -apple-system, BlinkMacSystemFont, &quot;Segoe WPC&quot;, &quot;Segoe UI&quot;, &quot;Ubuntu&quot;, &quot;Droid Sans&quot;, sans-serif, &quot;PingFang SC&quot;; font-size: 9px; font-weight: normal; text-rendering: geometricprecision; user-select: none;"><title>float32[128]</title><tspan style="font-weight: bold;">bias</tspan><tspan>〈128〉</tspan></text></g><line class="node" x1="0" x2="107.79374694824219" y1="0" y2="0" style="stroke: rgb(51, 51, 51); fill: none; stroke-width: 1px;"/></g><g class="node-item node-item-type node-item-type-activation" transform="translate(0,56.1800012588501)"><path d="M0,0h107.79374694824219a0,0 0 0 1 0,0v15.980000495910645a5,5 0 0 1 -5,5h-97.79374694824219a5,5 0 0 1 -5,-5v-15.980000495910645a0,0 0 0 1 0,0z" style="stroke: rgb(0, 0, 0); fill: rgb(112, 41, 33); stroke-width: 0px;"/><text x="6" y="14.642499923706055" style="font-family: -apple-system, BlinkMacSystemFont, &quot;Segoe WPC&quot;, &quot;Segoe UI&quot;, &quot;Ubuntu&quot;, &quot;Droid Sans&quot;, sans-serif, &quot;PingFang SC&quot;; font-size: 11px; text-rendering: geometricprecision; user-select: none; fill: rgb(255, 255, 255);">Activation</text></g><line class="node" x1="0" x2="107.79374694824219" y1="56.1800012588501" y2="56.1800012588501" style="stroke: rgb(51, 51, 51); fill: none; stroke-width: 1px;"/><path class="node node-border" d="M5,0h97.79374694824219a5,5 0 0 1 5,5v67.16000175476074a5,5 0 0 1 -5,5h-97.79374694824219a5,5 0 0 1 -5,-5v-67.16000175476074a5,5 0 0 1 5,-5z" style="stroke: rgb(51, 51, 51); fill: none; stroke-width: 1px;"/></g><g id="node-name-maxpooling2d_3" class="node graph-node" style="" transform="translate(13.116790771484375,434.42000675201416)"><g class="node-item node-item-type node-item-type-pool" transform="translate(0,0)"><path d="M5,0h71.56016540527344a5,5 0 0 1 5,5v10.980000495910645a5,5 0 0 1 -5,5h-71.56016540527344a5,5 0 0 1 -5,-5v-10.980000495910645a5,5 0 0 1 5,-5z" style="stroke: rgb(0, 0, 0); fill: rgb(51, 85, 51); stroke-width: 0px;"/><text x="6" y="14.642499923706055" style="font-family: -apple-system, BlinkMacSystemFont, &quot;Segoe WPC&quot;, &quot;Segoe UI&quot;, &quot;Ubuntu&quot;, &quot;Droid Sans&quot;, sans-serif, &quot;PingFang SC&quot;; font-size: 11px; text-rendering: geometricprecision; user-select: none; fill: rgb(255, 255, 255);">MaxPooling2D</text><title>maxpooling2d_3</title></g><path class="node node-border" d="M5,0h71.56016540527344a5,5 0 0 1 5,5v10.980000495910645a5,5 0 0 1 -5,5h-71.56016540527344a5,5 0 0 1 -5,-5v-10.980000495910645a5,5 0 0 1 5,-5z" style="stroke: rgb(51, 51, 51); fill: none; stroke-width: 1px;"/></g><g id="node-name-flatten" class="node graph-node" style="" transform="translate(31.108205795288086,475.4000072479248)"><g class="node-item node-item-type node-item-type-shape" transform="translate(0,0)"><path d="M5,0h35.577335357666016a5,5 0 0 1 5,5v10.980000495910645a5,5 0 0 1 -5,5h-35.577335357666016a5,5 0 0 1 -5,-5v-10.980000495910645a5,5 0 0 1 5,-5z" style="stroke: rgb(0, 0, 0); fill: rgb(108, 79, 71); stroke-width: 0px;"/><text x="6" y="14.642499923706055" style="font-family: -apple-system, BlinkMacSystemFont, &quot;Segoe WPC&quot;, &quot;Segoe UI&quot;, &quot;Ubuntu&quot;, &quot;Droid Sans&quot;, sans-serif, &quot;PingFang SC&quot;; font-size: 11px; text-rendering: geometricprecision; user-select: none; fill: rgb(255, 255, 255);">Flatten</text><title>flatten</title></g><path class="node node-border" d="M5,0h35.577335357666016a5,5 0 0 1 5,5v10.980000495910645a5,5 0 0 1 -5,5h-35.577335357666016a5,5 0 0 1 -5,-5v-10.980000495910645a5,5 0 0 1 5,-5z" style="stroke: rgb(51, 51, 51); fill: none; stroke-width: 1px;"/></g><g id="node-name-dense_1" class="node graph-node" style="" transform="translate(3.566997528076172,516.3800077438354)"><g class="node-item node-item-type node-item-type-layer" transform="translate(0,0)"><path d="M5,0h90.65975189208984a5,5 0 0 1 5,5v15.980000495910645a0,0 0 0 1 0,0h-100.65975189208984a0,0 0 0 1 0,0v-15.980000495910645a5,5 0 0 1 5,-5z" style="stroke: rgb(0, 0, 0); fill: rgb(51, 85, 136); stroke-width: 0px;"/><text x="6" y="14.642499923706055" style="font-family: -apple-system, BlinkMacSystemFont, &quot;Segoe WPC&quot;, &quot;Segoe UI&quot;, &quot;Ubuntu&quot;, &quot;Droid Sans&quot;, sans-serif, &quot;PingFang SC&quot;; font-size: 11px; text-rendering: geometricprecision; user-select: none; fill: rgb(255, 255, 255);">Dense</text><title>dense_1</title></g><g class="node-argument-list" transform="translate(0,20.980000495910645)"><path d="M0,0h100.65975189208984a0,0 0 0 1 0,0v35.20000076293945a0,0 0 0 1 0,0h-100.65975189208984a0,0 0 0 1 0,0v-35.20000076293945a0,0 0 0 1 0,0z" style="stroke: rgb(0, 0, 0); fill: rgb(255, 255, 255); stroke-width: 0px;"/><g class="node-argument"><rect rx="3" ry="3" x="3" y="3" width="94.65975189208984" height="14.600000381469727" style="fill: transparent;"/><text xml:space="preserve" x="6" y="13.539999961853027" style="font-family: -apple-system, BlinkMacSystemFont, &quot;Segoe WPC&quot;, &quot;Segoe UI&quot;, &quot;Ubuntu&quot;, &quot;Droid Sans&quot;, sans-serif, &quot;PingFang SC&quot;; font-size: 9px; font-weight: normal; text-rendering: geometricprecision; user-select: none;"><title>float32[12800,128]</title><tspan style="font-weight: bold;">kernel</tspan><tspan>〈12800×128〉</tspan></text></g><g class="node-argument"><rect rx="3" ry="3" x="3" y="17.600000381469727" width="94.65975189208984" height="14.600000381469727" style="fill: transparent;"/><text xml:space="preserve" x="6" y="28.140000343322754" style="font-family: -apple-system, BlinkMacSystemFont, &quot;Segoe WPC&quot;, &quot;Segoe UI&quot;, &quot;Ubuntu&quot;, &quot;Droid Sans&quot;, sans-serif, &quot;PingFang SC&quot;; font-size: 9px; font-weight: normal; text-rendering: geometricprecision; user-select: none;"><title>float32[128]</title><tspan style="font-weight: bold;">bias</tspan><tspan>〈128〉</tspan></text></g><line class="node" x1="0" x2="100.65975189208984" y1="0" y2="0" style="stroke: rgb(51, 51, 51); fill: none; stroke-width: 1px;"/></g><g class="node-item node-item-type node-item-type-activation" transform="translate(0,56.1800012588501)"><path d="M0,0h100.65975189208984a0,0 0 0 1 0,0v15.980000495910645a5,5 0 0 1 -5,5h-90.65975189208984a5,5 0 0 1 -5,-5v-15.980000495910645a0,0 0 0 1 0,0z" style="stroke: rgb(0, 0, 0); fill: rgb(112, 41, 33); stroke-width: 0px;"/><text x="6" y="14.642499923706055" style="font-family: -apple-system, BlinkMacSystemFont, &quot;Segoe WPC&quot;, &quot;Segoe UI&quot;, &quot;Ubuntu&quot;, &quot;Droid Sans&quot;, sans-serif, &quot;PingFang SC&quot;; font-size: 11px; text-rendering: geometricprecision; user-select: none; fill: rgb(255, 255, 255);">Activation</text></g><line class="node" x1="0" x2="100.65975189208984" y1="56.1800012588501" y2="56.1800012588501" style="stroke: rgb(51, 51, 51); fill: none; stroke-width: 1px;"/><path class="node node-border" d="M5,0h90.65975189208984a5,5 0 0 1 5,5v67.16000175476074a5,5 0 0 1 -5,5h-90.65975189208984a5,5 0 0 1 -5,-5v-67.16000175476074a5,5 0 0 1 5,-5z" style="stroke: rgb(51, 51, 51); fill: none; stroke-width: 1px;"/></g><g id="node-name-output_layer" class="node graph-node" style="" transform="translate(9.554244995117188,613.5400094985962)"><g class="node-item node-item-type node-item-type-layer" transform="translate(0,0)"><path d="M5,0h78.68525695800781a5,5 0 0 1 5,5v15.980000495910645a0,0 0 0 1 0,0h-88.68525695800781a0,0 0 0 1 0,0v-15.980000495910645a5,5 0 0 1 5,-5z" style="stroke: rgb(0, 0, 0); fill: rgb(51, 85, 136); stroke-width: 0px;"/><text x="6" y="14.642499923706055" style="font-family: -apple-system, BlinkMacSystemFont, &quot;Segoe WPC&quot;, &quot;Segoe UI&quot;, &quot;Ubuntu&quot;, &quot;Droid Sans&quot;, sans-serif, &quot;PingFang SC&quot;; font-size: 11px; text-rendering: geometricprecision; user-select: none; fill: rgb(255, 255, 255);">Dense</text><title>output_layer</title></g><g class="node-argument-list" transform="translate(0,20.980000495910645)"><path d="M0,0h88.68525695800781a0,0 0 0 1 0,0v35.20000076293945a0,0 0 0 1 0,0h-88.68525695800781a0,0 0 0 1 0,0v-35.20000076293945a0,0 0 0 1 0,0z" style="stroke: rgb(0, 0, 0); fill: rgb(255, 255, 255); stroke-width: 0px;"/><g class="node-argument"><rect rx="3" ry="3" x="3" y="3" width="82.68525695800781" height="14.600000381469727" style="fill: transparent;"/><text xml:space="preserve" x="6" y="13.539999961853027" style="font-family: -apple-system, BlinkMacSystemFont, &quot;Segoe WPC&quot;, &quot;Segoe UI&quot;, &quot;Ubuntu&quot;, &quot;Droid Sans&quot;, sans-serif, &quot;PingFang SC&quot;; font-size: 9px; font-weight: normal; text-rendering: geometricprecision; user-select: none;"><title>float32[128,141]</title><tspan style="font-weight: bold;">kernel</tspan><tspan>〈128×141〉</tspan></text></g><g class="node-argument"><rect rx="3" ry="3" x="3" y="17.600000381469727" width="82.68525695800781" height="14.600000381469727" style="fill: transparent;"/><text xml:space="preserve" x="6" y="28.140000343322754" style="font-family: -apple-system, BlinkMacSystemFont, &quot;Segoe WPC&quot;, &quot;Segoe UI&quot;, &quot;Ubuntu&quot;, &quot;Droid Sans&quot;, sans-serif, &quot;PingFang SC&quot;; font-size: 9px; font-weight: normal; text-rendering: geometricprecision; user-select: none;"><title>float32[141]</title><tspan style="font-weight: bold;">bias</tspan><tspan>〈141〉</tspan></text></g><line class="node" x1="0" x2="88.68525695800781" y1="0" y2="0" style="stroke: rgb(51, 51, 51); fill: none; stroke-width: 1px;"/></g><g class="node-item node-item-type node-item-type-activation" transform="translate(0,56.1800012588501)"><path d="M0,0h88.68525695800781a0,0 0 0 1 0,0v15.980000495910645a5,5 0 0 1 -5,5h-78.68525695800781a5,5 0 0 1 -5,-5v-15.980000495910645a0,0 0 0 1 0,0z" style="stroke: rgb(0, 0, 0); fill: rgb(112, 41, 33); stroke-width: 0px;"/><text x="6" y="14.642499923706055" style="font-family: -apple-system, BlinkMacSystemFont, &quot;Segoe WPC&quot;, &quot;Segoe UI&quot;, &quot;Ubuntu&quot;, &quot;Droid Sans&quot;, sans-serif, &quot;PingFang SC&quot;; font-size: 11px; text-rendering: geometricprecision; user-select: none; fill: rgb(255, 255, 255);">Activation</text></g><line class="node" x1="0" x2="88.68525695800781" y1="56.1800012588501" y2="56.1800012588501" style="stroke: rgb(51, 51, 51); fill: none; stroke-width: 1px;"/><path class="node node-border" d="M5,0h78.68525695800781a5,5 0 0 1 5,5v67.16000175476074a5,5 0 0 1 -5,5h-78.68525695800781a5,5 0 0 1 -5,-5v-67.16000175476074a5,5 0 0 1 5,-5z" style="stroke: rgb(51, 51, 51); fill: none; stroke-width: 1px;"/></g><g class="node" style="" transform="translate(17.932958602905273,710.7000112533569)"><g class="node-item graph-item-output" transform="translate(0,0)"><path d="M5,0h61.92782974243164a5,5 0 0 1 5,5v10.980000495910645a5,5 0 0 1 -5,5h-61.92782974243164a5,5 0 0 1 -5,-5v-10.980000495910645a5,5 0 0 1 5,-5z" style="stroke: rgb(0, 0, 0); fill: rgb(238, 238, 238); stroke-width: 0px;"/><text x="6" y="14.642499923706055" style="font-family: -apple-system, BlinkMacSystemFont, &quot;Segoe WPC&quot;, &quot;Segoe UI&quot;, &quot;Ubuntu&quot;, &quot;Droid Sans&quot;, sans-serif, &quot;PingFang SC&quot;; font-size: 11px; text-rendering: geometricprecision; user-select: none;">output_layer</text></g><path class="node node-border" d="M5,0h61.92782974243164a5,5 0 0 1 5,5v10.980000495910645a5,5 0 0 1 -5,5h-61.92782974243164a5,5 0 0 1 -5,-5v-10.980000495910645a5,5 0 0 1 5,-5z" style="stroke: rgb(51, 51, 51); fill: none; stroke-width: 1px;"/></g></g></g></svg>