<svg xmlns="http://www.w3.org/2000/svg" id="export" class="canvas" preserveAspectRatio="xMidYMid meet" style="" width="129" height="760"><rect id="background" fill="#fff" pointer-events="all" width="129" height="760"/><g id="origin" transform="translate(5.831400299072266, 5.831401252746582) scale(1)"><g id="clusters" class="clusters"/><g id="edge-paths" class="edge-paths"><defs><marker id="arrowhead" viewBox="0 0 10 10" refX="9" refY="5" markerUnits="strokeWidth" markerWidth="8" markerHeight="6" orient="auto" style="fill: rgb(0, 0, 0);"><path d="M 0 0 L 10 5 L 0 10 L 4 5 z" style="stroke-width: 1px;"/></marker><marker id="arrowhead-select" viewBox="0 0 10 10" refX="9" refY="5" markerUnits="strokeWidth" markerWidth="8" markerHeight="6" orient="auto" style="fill: rgba(220, 0, 0, 0.9);"><path d="M 0 0 L 10 5 L 0 10 L 4 5 z" style="stroke-width: 1px;"/></marker><marker id="arrowhead-hover" viewBox="0 0 10 10" refX="9" refY="5" markerUnits="strokeWidth" markerWidth="8" markerHeight="6" orient="auto" style="fill: rgba(220, 0, 0, 0.9);"><path d="M 0 0 L 10 5 L 0 10 L 4 5 z" style="stroke-width: 1px;"/></marker></defs><path id="edge-input_layer_5" class="edge-path" d="M58.314002990722656,20.980000495910645L58.314002990722656,22.646667162577312C58.314002990722656,24.313333829243977,58.314002990722656,27.646667162577312,58.314002990722656,30.980000495910645C58.314002990722656,34.31333382924398,58.314002990722656,37.64666716257731,58.314002990722656,40.980000495910645C58.314002990722656,44.31333382924398,58.314002990722656,47.64666716257731,58.314002990722656,50.980000495910645C58.314002990722656,54.31333382924398,58.314002990722656,57.64666716257731,58.314002990722656,59.31333382924398L58.314002990722656,60.980000495910645" style="stroke: rgb(0, 0, 0); stroke-width: 1px; fill: none; marker-end: url(&quot;#arrowhead&quot;);"/><path class="edge-path-hit-test" d="M58.314002990722656,20.980000495910645L58.314002990722656,22.646667162577312C58.314002990722656,24.313333829243977,58.314002990722656,27.646667162577312,58.314002990722656,30.980000495910645C58.314002990722656,34.31333382924398,58.314002990722656,37.64666716257731,58.314002990722656,40.980000495910645C58.314002990722656,44.31333382924398,58.314002990722656,47.64666716257731,58.314002990722656,50.980000495910645C58.314002990722656,54.31333382924398,58.314002990722656,57.64666716257731,58.314002990722656,59.31333382924398L58.314002990722656,60.980000495910645" style="pointer-events: stroke; stroke-width: 0.5em; fill: none; stroke: rgb(0, 0, 0); stroke-opacity: 0.001;"/><path id="edge-efficientnetb0" class="edge-path" d="M58.314002990722656,81.96000099182129L58.314002990722656,83.62666765848796C58.314002990722656,85.29333432515462,58.314002990722656,88.62666765848796,58.314002990722656,91.96000099182129C58.314002990722656,95.29333432515462,58.314002990722656,98.62666765848796,58.314002990722656,100.29333432515462L58.314002990722656,101.96000099182129" style="stroke: rgb(0, 0, 0); stroke-width: 1px; fill: none; marker-end: url(&quot;#arrowhead&quot;);"/><path class="edge-path-hit-test" d="M58.314002990722656,81.96000099182129L58.314002990722656,83.62666765848796C58.314002990722656,85.29333432515462,58.314002990722656,88.62666765848796,58.314002990722656,91.96000099182129C58.314002990722656,95.29333432515462,58.314002990722656,98.62666765848796,58.314002990722656,100.29333432515462L58.314002990722656,101.96000099182129" style="pointer-events: stroke; stroke-width: 0.5em; fill: none; stroke: rgb(0, 0, 0); stroke-opacity: 0.001;"/><path id="edge-global_avg_pooling" class="edge-path" d="M58.314002990722656,122.94000148773193L58.314002990722656,124.6066681543986C58.314002990722656,126.27333482106526,58.314002990722656,129.6066681543986,58.314002990722656,132.94000148773193C58.314002990722656,136.27333482106528,58.314002990722656,139.6066681543986,58.314002990722656,141.27333482106528L58.314002990722656,142.94000148773193" style="stroke: rgb(0, 0, 0); stroke-width: 1px; fill: none; marker-end: url(&quot;#arrowhead&quot;);"/><path class="edge-path-hit-test" d="M58.314002990722656,122.94000148773193L58.314002990722656,124.6066681543986C58.314002990722656,126.27333482106526,58.314002990722656,129.6066681543986,58.314002990722656,132.94000148773193C58.314002990722656,136.27333482106528,58.314002990722656,139.6066681543986,58.314002990722656,141.27333482106528L58.314002990722656,142.94000148773193" style="pointer-events: stroke; stroke-width: 0.5em; fill: none; stroke: rgb(0, 0, 0); stroke-opacity: 0.001;"/><path id="edge-dense_1" class="edge-path" d="M58.314002990722656,220.10000324249268L58.314002990722656,221.76666990915933C58.314002990722656,223.43333657582602,58.314002990722656,226.76666990915933,58.314002990722656,230.10000324249268C58.314002990722656,233.43333657582602,58.314002990722656,236.76666990915933,58.314002990722656,238.43333657582602L58.314002990722656,240.10000324249268" style="stroke: rgb(0, 0, 0); stroke-width: 1px; fill: none; marker-end: url(&quot;#arrowhead&quot;);"/><path class="edge-path-hit-test" d="M58.314002990722656,220.10000324249268L58.314002990722656,221.76666990915933C58.314002990722656,223.43333657582602,58.314002990722656,226.76666990915933,58.314002990722656,230.10000324249268C58.314002990722656,233.43333657582602,58.314002990722656,236.76666990915933,58.314002990722656,238.43333657582602L58.314002990722656,240.10000324249268" style="pointer-events: stroke; stroke-width: 0.5em; fill: none; stroke: rgb(0, 0, 0); stroke-opacity: 0.001;"/><path id="edge-batch_norm_1" class="edge-path" d="M58.314002990722656,325.4800052642822L58.314002990722656,327.1466719309489C58.314002990722656,328.81333859761554,58.314002990722656,332.1466719309489,58.314002990722656,335.4800052642822C58.314002990722656,338.81333859761554,58.314002990722656,342.1466719309489,58.314002990722656,343.81333859761554L58.314002990722656,345.4800052642822" style="stroke: rgb(0, 0, 0); stroke-width: 1px; fill: none; marker-end: url(&quot;#arrowhead&quot;);"/><path class="edge-path-hit-test" d="M58.314002990722656,325.4800052642822L58.314002990722656,327.1466719309489C58.314002990722656,328.81333859761554,58.314002990722656,332.1466719309489,58.314002990722656,335.4800052642822C58.314002990722656,338.81333859761554,58.314002990722656,342.1466719309489,58.314002990722656,343.81333859761554L58.314002990722656,345.4800052642822" style="pointer-events: stroke; stroke-width: 0.5em; fill: none; stroke: rgb(0, 0, 0); stroke-opacity: 0.001;"/><path id="edge-dropout_1" class="edge-path" d="M58.314002990722656,366.46000576019287L58.314002990722656,368.12667242685956C58.314002990722656,369.7933390935262,58.314002990722656,373.12667242685956,58.314002990722656,376.46000576019287C58.314002990722656,379.7933390935262,58.314002990722656,383.12667242685956,58.314002990722656,384.7933390935262L58.314002990722656,386.46000576019287" style="stroke: rgb(0, 0, 0); stroke-width: 1px; fill: none; marker-end: url(&quot;#arrowhead&quot;);"/><path class="edge-path-hit-test" d="M58.314002990722656,366.46000576019287L58.314002990722656,368.12667242685956C58.314002990722656,369.7933390935262,58.314002990722656,373.12667242685956,58.314002990722656,376.46000576019287C58.314002990722656,379.7933390935262,58.314002990722656,383.12667242685956,58.314002990722656,384.7933390935262L58.314002990722656,386.46000576019287" style="pointer-events: stroke; stroke-width: 0.5em; fill: none; stroke: rgb(0, 0, 0); stroke-opacity: 0.001;"/><path id="edge-dense_2" class="edge-path" d="M58.314002990722656,463.6200075149536L58.314002990722656,465.2866741816203C58.314002990722656,466.9533408482869,58.314002990722656,470.2866741816203,58.314002990722656,473.6200075149536C58.314002990722656,476.9533408482869,58.314002990722656,480.2866741816203,58.314002990722656,481.9533408482869L58.314002990722656,483.6200075149536" style="stroke: rgb(0, 0, 0); stroke-width: 1px; fill: none; marker-end: url(&quot;#arrowhead&quot;);"/><path class="edge-path-hit-test" d="M58.314002990722656,463.6200075149536L58.314002990722656,465.2866741816203C58.314002990722656,466.9533408482869,58.314002990722656,470.2866741816203,58.314002990722656,473.6200075149536C58.314002990722656,476.9533408482869,58.314002990722656,480.2866741816203,58.314002990722656,481.9533408482869L58.314002990722656,483.6200075149536" style="pointer-events: stroke; stroke-width: 0.5em; fill: none; stroke: rgb(0, 0, 0); stroke-opacity: 0.001;"/><path id="edge-batch_norm_2" class="edge-path" d="M58.314002990722656,569.0000095367432L58.314002990722656,570.6666762034098C58.314002990722656,572.3333428700765,58.314002990722656,575.6666762034098,58.314002990722656,579.0000095367432C58.314002990722656,582.3333428700765,58.314002990722656,585.6666762034098,58.314002990722656,587.3333428700765L58.314002990722656,589.0000095367432" style="stroke: rgb(0, 0, 0); stroke-width: 1px; fill: none; marker-end: url(&quot;#arrowhead&quot;);"/><path class="edge-path-hit-test" d="M58.314002990722656,569.0000095367432L58.314002990722656,570.6666762034098C58.314002990722656,572.3333428700765,58.314002990722656,575.6666762034098,58.314002990722656,579.0000095367432C58.314002990722656,582.3333428700765,58.314002990722656,585.6666762034098,58.314002990722656,587.3333428700765L58.314002990722656,589.0000095367432" style="pointer-events: stroke; stroke-width: 0.5em; fill: none; stroke: rgb(0, 0, 0); stroke-opacity: 0.001;"/><path id="edge-dropout_2" class="edge-path" d="M58.314002990722656,609.9800100326538L58.314002990722656,611.6466766993204C58.314002990722656,613.3133433659872,58.314002990722656,616.6466766993204,58.314002990722656,619.9800100326538C58.314002990722656,623.3133433659872,58.314002990722656,626.6466766993204,58.314002990722656,628.3133433659872L58.314002990722656,629.9800100326538" style="stroke: rgb(0, 0, 0); stroke-width: 1px; fill: none; marker-end: url(&quot;#arrowhead&quot;);"/><path class="edge-path-hit-test" d="M58.314002990722656,609.9800100326538L58.314002990722656,611.6466766993204C58.314002990722656,613.3133433659872,58.314002990722656,616.6466766993204,58.314002990722656,619.9800100326538C58.314002990722656,623.3133433659872,58.314002990722656,626.6466766993204,58.314002990722656,628.3133433659872L58.314002990722656,629.9800100326538" style="pointer-events: stroke; stroke-width: 0.5em; fill: none; stroke: rgb(0, 0, 0); stroke-opacity: 0.001;"/><path id="edge-output_layer" class="edge-path" d="M58.314002990722656,707.1400117874146L58.314002990722656,708.8066784540812C58.314002990722656,710.4733451207479,58.314002990722656,713.8066784540812,58.314002990722656,717.1400117874146C58.314002990722656,720.4733451207479,58.314002990722656,723.8066784540812,58.314002990722656,725.4733451207479L58.314002990722656,727.1400117874146" style="stroke: rgb(0, 0, 0); stroke-width: 1px; fill: none; marker-end: url(&quot;#arrowhead&quot;);"/><path class="edge-path-hit-test" d="M58.314002990722656,707.1400117874146L58.314002990722656,708.8066784540812C58.314002990722656,710.4733451207479,58.314002990722656,713.8066784540812,58.314002990722656,717.1400117874146C58.314002990722656,720.4733451207479,58.314002990722656,723.8066784540812,58.314002990722656,725.4733451207479L58.314002990722656,727.1400117874146" style="pointer-events: stroke; stroke-width: 0.5em; fill: none; stroke: rgb(0, 0, 0); stroke-opacity: 0.001;"/></g><g id="edge-labels" class="edge-labels"/><g id="nodes" class="nodes"><g id="input-name-input_layer_5" class="node graph-input" style="" transform="translate(19.67754554748535,0)"><g class="node-item graph-item-input" transform="translate(0,0)"><path d="M5,0h67.27291488647461a5,5 0 0 1 5,5v10.980000495910645a5,5 0 0 1 -5,5h-67.27291488647461a5,5 0 0 1 -5,-5v-10.980000495910645a5,5 0 0 1 5,-5z" style="stroke: rgb(0, 0, 0); fill: rgb(238, 238, 238); stroke-width: 0px;"/><text x="6" y="14.642499923706055" style="font-family: -apple-system, BlinkMacSystemFont, &quot;Segoe WPC&quot;, &quot;Segoe UI&quot;, &quot;Ubuntu&quot;, &quot;Droid Sans&quot;, sans-serif, &quot;PingFang SC&quot;; font-size: 11px; text-rendering: geometricprecision; user-select: none;">input_layer_5</text><title>float32</title></g><path class="node node-border" d="M5,0h67.27291488647461a5,5 0 0 1 5,5v10.980000495910645a5,5 0 0 1 -5,5h-67.27291488647461a5,5 0 0 1 -5,-5v-10.980000495910645a5,5 0 0 1 5,-5z" style="stroke: rgb(51, 51, 51); fill: none; stroke-width: 1px;"/></g><g id="node-name-efficientnetb0" class="node graph-node" style="" transform="translate(9.939003705978394,60.980000495910645)"><g class="node-item node-item-type" transform="translate(0,0)"><path d="M5,0h73.71849822998047a0,0 0 0 1 0,0v20.980000495910645a0,0 0 0 1 0,0h-73.71849822998047a5,5 0 0 1 -5,-5v-10.980000495910645a5,5 0 0 1 5,-5z" style="stroke: rgb(0, 0, 0); fill: rgb(0, 0, 0); stroke-width: 0px;"/><text x="6" y="14.642499923706055" style="font-family: -apple-system, BlinkMacSystemFont, &quot;Segoe WPC&quot;, &quot;Segoe UI&quot;, &quot;Ubuntu&quot;, &quot;Droid Sans&quot;, sans-serif, &quot;PingFang SC&quot;; font-size: 11px; text-rendering: geometricprecision; user-select: none; fill: rgb(255, 255, 255);">efficientnetb0</text><title>efficientnetb0</title></g><g class="node-item node-item-type" transform="translate(78.71849822998047,0)"><path d="M0,0h13.031500339508057a5,5 0 0 1 5,5v10.980000495910645a5,5 0 0 1 -5,5h-13.031500339508057a0,0 0 0 1 0,0v-20.980000495910645a0,0 0 0 1 0,0z" style="stroke: rgb(0, 0, 0); fill: rgb(0, 0, 0); stroke-width: 0px;"/><text x="6" y="14.642499923706055" style="font-family: -apple-system, BlinkMacSystemFont, &quot;Segoe WPC&quot;, &quot;Segoe UI&quot;, &quot;Ubuntu&quot;, &quot;Droid Sans&quot;, sans-serif, &quot;PingFang SC&quot;; font-size: 11px; text-rendering: geometricprecision; user-select: none; fill: rgb(255, 255, 255);">ƒ</text><title>Show Function Definition</title></g><line class="node" x1="78.71849822998047" x2="78.71849822998047" y1="0" y2="20.980000495910645" style="stroke: rgb(51, 51, 51); fill: none; stroke-width: 1px;"/><path class="node node-border" d="M5,0h86.74999856948853a5,5 0 0 1 5,5v10.980000495910645a5,5 0 0 1 -5,5h-86.74999856948853a5,5 0 0 1 -5,-5v-10.980000495910645a5,5 0 0 1 5,-5z" style="stroke: rgb(51, 51, 51); fill: none; stroke-width: 1px;"/></g><g id="node-name-global_avg_pooling" class="node graph-node" style="" transform="translate(0.60400390625,101.96000099182129)"><g class="node-item node-item-type node-item-type-pool" transform="translate(0,0)"><path d="M5,0h105.41999816894531a5,5 0 0 1 5,5v10.980000495910645a5,5 0 0 1 -5,5h-105.41999816894531a5,5 0 0 1 -5,-5v-10.980000495910645a5,5 0 0 1 5,-5z" style="stroke: rgb(0, 0, 0); fill: rgb(51, 85, 51); stroke-width: 0px;"/><text x="6" y="14.642499923706055" style="font-family: -apple-system, BlinkMacSystemFont, &quot;Segoe WPC&quot;, &quot;Segoe UI&quot;, &quot;Ubuntu&quot;, &quot;Droid Sans&quot;, sans-serif, &quot;PingFang SC&quot;; font-size: 11px; text-rendering: geometricprecision; user-select: none; fill: rgb(255, 255, 255);">GlobalAve…Pooling2D</text><title>global_avg_pooling</title></g><path class="node node-border" d="M5,0h105.41999816894531a5,5 0 0 1 5,5v10.980000495910645a5,5 0 0 1 -5,5h-105.41999816894531a5,5 0 0 1 -5,-5v-10.980000495910645a5,5 0 0 1 5,-5z" style="stroke: rgb(51, 51, 51); fill: none; stroke-width: 1px;"/></g><g id="node-name-dense_1" class="node graph-node" style="" transform="translate(10.022628784179688,142.94000148773193)"><g class="node-item node-item-type node-item-type-layer" transform="translate(0,0)"><path d="M5,0h86.58274841308594a5,5 0 0 1 5,5v15.980000495910645a0,0 0 0 1 0,0h-96.58274841308594a0,0 0 0 1 0,0v-15.980000495910645a5,5 0 0 1 5,-5z" style="stroke: rgb(0, 0, 0); fill: rgb(51, 85, 136); stroke-width: 0px;"/><text x="6" y="14.642499923706055" style="font-family: -apple-system, BlinkMacSystemFont, &quot;Segoe WPC&quot;, &quot;Segoe UI&quot;, &quot;Ubuntu&quot;, &quot;Droid Sans&quot;, sans-serif, &quot;PingFang SC&quot;; font-size: 11px; text-rendering: geometricprecision; user-select: none; fill: rgb(255, 255, 255);">Dense</text><title>dense_1</title></g><g class="node-argument-list" transform="translate(0,20.980000495910645)"><path d="M0,0h96.58274841308594a0,0 0 0 1 0,0v35.20000076293945a0,0 0 0 1 0,0h-96.58274841308594a0,0 0 0 1 0,0v-35.20000076293945a0,0 0 0 1 0,0z" style="stroke: rgb(0, 0, 0); fill: rgb(255, 255, 255); stroke-width: 0px;"/><g class="node-argument"><rect rx="3" ry="3" x="3" y="3" width="90.58274841308594" height="14.600000381469727" style="fill: transparent;"/><text xml:space="preserve" x="6" y="13.539999961853027" style="font-family: -apple-system, BlinkMacSystemFont, &quot;Segoe WPC&quot;, &quot;Segoe UI&quot;, &quot;Ubuntu&quot;, &quot;Droid Sans&quot;, sans-serif, &quot;PingFang SC&quot;; font-size: 9px; font-weight: normal; text-rendering: geometricprecision; user-select: none;"><title>float32[1280,423]</title><tspan style="font-weight: bold;">kernel</tspan><tspan>〈1280×423〉</tspan></text></g><g class="node-argument"><rect rx="3" ry="3" x="3" y="17.600000381469727" width="90.58274841308594" height="14.600000381469727" style="fill: transparent;"/><text xml:space="preserve" x="6" y="28.140000343322754" style="font-family: -apple-system, BlinkMacSystemFont, &quot;Segoe WPC&quot;, &quot;Segoe UI&quot;, &quot;Ubuntu&quot;, &quot;Droid Sans&quot;, sans-serif, &quot;PingFang SC&quot;; font-size: 9px; font-weight: normal; text-rendering: geometricprecision; user-select: none;"><title>float32[423]</title><tspan style="font-weight: bold;">bias</tspan><tspan>〈423〉</tspan></text></g><line class="node" x1="0" x2="96.58274841308594" y1="0" y2="0" style="stroke: rgb(51, 51, 51); fill: none; stroke-width: 1px;"/></g><g class="node-item node-item-type node-item-type-activation" transform="translate(0,56.1800012588501)"><path d="M0,0h96.58274841308594a0,0 0 0 1 0,0v15.980000495910645a5,5 0 0 1 -5,5h-86.58274841308594a5,5 0 0 1 -5,-5v-15.980000495910645a0,0 0 0 1 0,0z" style="stroke: rgb(0, 0, 0); fill: rgb(112, 41, 33); stroke-width: 0px;"/><text x="6" y="14.642499923706055" style="font-family: -apple-system, BlinkMacSystemFont, &quot;Segoe WPC&quot;, &quot;Segoe UI&quot;, &quot;Ubuntu&quot;, &quot;Droid Sans&quot;, sans-serif, &quot;PingFang SC&quot;; font-size: 11px; text-rendering: geometricprecision; user-select: none; fill: rgb(255, 255, 255);">Activation</text></g><line class="node" x1="0" x2="96.58274841308594" y1="56.1800012588501" y2="56.1800012588501" style="stroke: rgb(51, 51, 51); fill: none; stroke-width: 1px;"/><path class="node node-border" d="M5,0h86.58274841308594a5,5 0 0 1 5,5v67.16000175476074a5,5 0 0 1 -5,5h-86.58274841308594a5,5 0 0 1 -5,-5v-67.16000175476074a5,5 0 0 1 5,-5z" style="stroke: rgb(51, 51, 51); fill: none; stroke-width: 1px;"/></g><g id="node-name-batch_norm_1" class="node graph-node" style="" transform="translate(0,240.10000324249268)"><g class="node-item node-item-type node-item-type-normalization" transform="translate(0,0)"><path d="M5,0h106.62800598144531a5,5 0 0 1 5,5v15.980000495910645a0,0 0 0 1 0,0h-116.62800598144531a0,0 0 0 1 0,0v-15.980000495910645a5,5 0 0 1 5,-5z" style="stroke: rgb(0, 0, 0); fill: rgb(51, 85, 68); stroke-width: 0px;"/><text x="6" y="14.642499923706055" style="font-family: -apple-system, BlinkMacSystemFont, &quot;Segoe WPC&quot;, &quot;Segoe UI&quot;, &quot;Ubuntu&quot;, &quot;Droid Sans&quot;, sans-serif, &quot;PingFang SC&quot;; font-size: 11px; text-rendering: geometricprecision; user-select: none; fill: rgb(255, 255, 255);">BatchNormalization</text><title>batch_norm_1</title></g><g class="node-argument-list" transform="translate(0,20.980000495910645)"><path d="M0,0h116.62800598144531a0,0 0 0 1 0,0v59.400001525878906a5,5 0 0 1 -5,5h-106.62800598144531a5,5 0 0 1 -5,-5v-59.400001525878906a0,0 0 0 1 0,0z" style="stroke: rgb(0, 0, 0); fill: rgb(255, 255, 255); stroke-width: 0px;"/><g class="node-argument"><rect rx="3" ry="3" x="3" y="3" width="110.62800598144531" height="14.600000381469727" style="fill: transparent;"/><text xml:space="preserve" x="6" y="13.539999961853027" style="font-family: -apple-system, BlinkMacSystemFont, &quot;Segoe WPC&quot;, &quot;Segoe UI&quot;, &quot;Ubuntu&quot;, &quot;Droid Sans&quot;, sans-serif, &quot;PingFang SC&quot;; font-size: 9px; font-weight: normal; text-rendering: geometricprecision; user-select: none;"><title>float32[423]</title><tspan style="font-weight: bold;">gamma</tspan><tspan>〈423〉</tspan></text></g><g class="node-argument"><rect rx="3" ry="3" x="3" y="17.600000381469727" width="110.62800598144531" height="14.600000381469727" style="fill: transparent;"/><text xml:space="preserve" x="6" y="28.140000343322754" style="font-family: -apple-system, BlinkMacSystemFont, &quot;Segoe WPC&quot;, &quot;Segoe UI&quot;, &quot;Ubuntu&quot;, &quot;Droid Sans&quot;, sans-serif, &quot;PingFang SC&quot;; font-size: 9px; font-weight: normal; text-rendering: geometricprecision; user-select: none;"><title>float32[423]</title><tspan style="font-weight: bold;">beta</tspan><tspan>〈423〉</tspan></text></g><g class="node-argument"><rect rx="3" ry="3" x="3" y="32.20000076293945" width="110.62800598144531" height="14.600000381469727" style="fill: transparent;"/><text xml:space="preserve" x="6" y="42.74000072479248" style="font-family: -apple-system, BlinkMacSystemFont, &quot;Segoe WPC&quot;, &quot;Segoe UI&quot;, &quot;Ubuntu&quot;, &quot;Droid Sans&quot;, sans-serif, &quot;PingFang SC&quot;; font-size: 9px; font-weight: normal; text-rendering: geometricprecision; user-select: none;"><title>float32[423]</title><tspan style="font-weight: bold;">moving_mean</tspan><tspan>〈423〉</tspan></text></g><g class="node-argument"><rect rx="3" ry="3" x="3" y="46.80000114440918" width="110.62800598144531" height="14.600000381469727" style="fill: transparent;"/><text xml:space="preserve" x="6" y="57.34000110626221" style="font-family: -apple-system, BlinkMacSystemFont, &quot;Segoe WPC&quot;, &quot;Segoe UI&quot;, &quot;Ubuntu&quot;, &quot;Droid Sans&quot;, sans-serif, &quot;PingFang SC&quot;; font-size: 9px; font-weight: normal; text-rendering: geometricprecision; user-select: none;"><title>float32[423]</title><tspan style="font-weight: bold;">moving_variance</tspan><tspan>〈423〉</tspan></text></g><line class="node" x1="0" x2="116.62800598144531" y1="0" y2="0" style="stroke: rgb(51, 51, 51); fill: none; stroke-width: 1px;"/></g><path class="node node-border" d="M5,0h106.62800598144531a5,5 0 0 1 5,5v75.38000202178955a5,5 0 0 1 -5,5h-106.62800598144531a5,5 0 0 1 -5,-5v-75.38000202178955a5,5 0 0 1 5,-5z" style="stroke: rgb(51, 51, 51); fill: none; stroke-width: 1px;"/></g><g id="node-name-dropout_1" class="node graph-node" style="" transform="translate(32.55167007446289,345.4800052642822)"><g class="node-item node-item-type node-item-type-dropout" transform="translate(0,0)"><path d="M5,0h41.52466583251953a5,5 0 0 1 5,5v10.980000495910645a5,5 0 0 1 -5,5h-41.52466583251953a5,5 0 0 1 -5,-5v-10.980000495910645a5,5 0 0 1 5,-5z" style="stroke: rgb(0, 0, 0); fill: rgb(69, 71, 112); stroke-width: 0px;"/><text x="6" y="14.642499923706055" style="font-family: -apple-system, BlinkMacSystemFont, &quot;Segoe WPC&quot;, &quot;Segoe UI&quot;, &quot;Ubuntu&quot;, &quot;Droid Sans&quot;, sans-serif, &quot;PingFang SC&quot;; font-size: 11px; text-rendering: geometricprecision; user-select: none; fill: rgb(255, 255, 255);">Dropout</text><title>dropout_1</title></g><path class="node node-border" d="M5,0h41.52466583251953a5,5 0 0 1 5,5v10.980000495910645a5,5 0 0 1 -5,5h-41.52466583251953a5,5 0 0 1 -5,-5v-10.980000495910645a5,5 0 0 1 5,-5z" style="stroke: rgb(51, 51, 51); fill: none; stroke-width: 1px;"/></g><g id="node-name-dense_2" class="node graph-node" style="" transform="translate(12.199878692626953,386.46000576019287)"><g class="node-item node-item-type node-item-type-layer" transform="translate(0,0)"><path d="M5,0h82.2282485961914a5,5 0 0 1 5,5v15.980000495910645a0,0 0 0 1 0,0h-92.2282485961914a0,0 0 0 1 0,0v-15.980000495910645a5,5 0 0 1 5,-5z" style="stroke: rgb(0, 0, 0); fill: rgb(51, 85, 136); stroke-width: 0px;"/><text x="6" y="14.642499923706055" style="font-family: -apple-system, BlinkMacSystemFont, &quot;Segoe WPC&quot;, &quot;Segoe UI&quot;, &quot;Ubuntu&quot;, &quot;Droid Sans&quot;, sans-serif, &quot;PingFang SC&quot;; font-size: 11px; text-rendering: geometricprecision; user-select: none; fill: rgb(255, 255, 255);">Dense</text><title>dense_2</title></g><g class="node-argument-list" transform="translate(0,20.980000495910645)"><path d="M0,0h92.2282485961914a0,0 0 0 1 0,0v35.20000076293945a0,0 0 0 1 0,0h-92.2282485961914a0,0 0 0 1 0,0v-35.20000076293945a0,0 0 0 1 0,0z" style="stroke: rgb(0, 0, 0); fill: rgb(255, 255, 255); stroke-width: 0px;"/><g class="node-argument"><rect rx="3" ry="3" x="3" y="3" width="86.2282485961914" height="14.600000381469727" style="fill: transparent;"/><text xml:space="preserve" x="6" y="13.539999961853027" style="font-family: -apple-system, BlinkMacSystemFont, &quot;Segoe WPC&quot;, &quot;Segoe UI&quot;, &quot;Ubuntu&quot;, &quot;Droid Sans&quot;, sans-serif, &quot;PingFang SC&quot;; font-size: 9px; font-weight: normal; text-rendering: geometricprecision; user-select: none;"><title>float32[423,282]</title><tspan style="font-weight: bold;">kernel</tspan><tspan>〈423×282〉</tspan></text></g><g class="node-argument"><rect rx="3" ry="3" x="3" y="17.600000381469727" width="86.2282485961914" height="14.600000381469727" style="fill: transparent;"/><text xml:space="preserve" x="6" y="28.140000343322754" style="font-family: -apple-system, BlinkMacSystemFont, &quot;Segoe WPC&quot;, &quot;Segoe UI&quot;, &quot;Ubuntu&quot;, &quot;Droid Sans&quot;, sans-serif, &quot;PingFang SC&quot;; font-size: 9px; font-weight: normal; text-rendering: geometricprecision; user-select: none;"><title>float32[282]</title><tspan style="font-weight: bold;">bias</tspan><tspan>〈282〉</tspan></text></g><line class="node" x1="0" x2="92.2282485961914" y1="0" y2="0" style="stroke: rgb(51, 51, 51); fill: none; stroke-width: 1px;"/></g><g class="node-item node-item-type node-item-type-activation" transform="translate(0,56.1800012588501)"><path d="M0,0h92.2282485961914a0,0 0 0 1 0,0v15.980000495910645a5,5 0 0 1 -5,5h-82.2282485961914a5,5 0 0 1 -5,-5v-15.980000495910645a0,0 0 0 1 0,0z" style="stroke: rgb(0, 0, 0); fill: rgb(112, 41, 33); stroke-width: 0px;"/><text x="6" y="14.642499923706055" style="font-family: -apple-system, BlinkMacSystemFont, &quot;Segoe WPC&quot;, &quot;Segoe UI&quot;, &quot;Ubuntu&quot;, &quot;Droid Sans&quot;, sans-serif, &quot;PingFang SC&quot;; font-size: 11px; text-rendering: geometricprecision; user-select: none; fill: rgb(255, 255, 255);">Activation</text></g><line class="node" x1="0" x2="92.2282485961914" y1="56.1800012588501" y2="56.1800012588501" style="stroke: rgb(51, 51, 51); fill: none; stroke-width: 1px;"/><path class="node node-border" d="M5,0h82.2282485961914a5,5 0 0 1 5,5v67.16000175476074a5,5 0 0 1 -5,5h-82.2282485961914a5,5 0 0 1 -5,-5v-67.16000175476074a5,5 0 0 1 5,-5z" style="stroke: rgb(51, 51, 51); fill: none; stroke-width: 1px;"/></g><g id="node-name-batch_norm_2" class="node graph-node" style="" transform="translate(0.13875198364257812,483.6200075149536)"><g class="node-item node-item-type node-item-type-normalization" transform="translate(0,0)"><path d="M5,0h106.35050201416016a5,5 0 0 1 5,5v15.980000495910645a0,0 0 0 1 0,0h-116.35050201416016a0,0 0 0 1 0,0v-15.980000495910645a5,5 0 0 1 5,-5z" style="stroke: rgb(0, 0, 0); fill: rgb(51, 85, 68); stroke-width: 0px;"/><text x="6" y="14.642499923706055" style="font-family: -apple-system, BlinkMacSystemFont, &quot;Segoe WPC&quot;, &quot;Segoe UI&quot;, &quot;Ubuntu&quot;, &quot;Droid Sans&quot;, sans-serif, &quot;PingFang SC&quot;; font-size: 11px; text-rendering: geometricprecision; user-select: none; fill: rgb(255, 255, 255);">BatchNormalization</text><title>batch_norm_2</title></g><g class="node-argument-list" transform="translate(0,20.980000495910645)"><path d="M0,0h116.35050201416016a0,0 0 0 1 0,0v59.400001525878906a5,5 0 0 1 -5,5h-106.35050201416016a5,5 0 0 1 -5,-5v-59.400001525878906a0,0 0 0 1 0,0z" style="stroke: rgb(0, 0, 0); fill: rgb(255, 255, 255); stroke-width: 0px;"/><g class="node-argument"><rect rx="3" ry="3" x="3" y="3" width="110.35050201416016" height="14.600000381469727" style="fill: transparent;"/><text xml:space="preserve" x="6" y="13.539999961853027" style="font-family: -apple-system, BlinkMacSystemFont, &quot;Segoe WPC&quot;, &quot;Segoe UI&quot;, &quot;Ubuntu&quot;, &quot;Droid Sans&quot;, sans-serif, &quot;PingFang SC&quot;; font-size: 9px; font-weight: normal; text-rendering: geometricprecision; user-select: none;"><title>float32[282]</title><tspan style="font-weight: bold;">gamma</tspan><tspan>〈282〉</tspan></text></g><g class="node-argument"><rect rx="3" ry="3" x="3" y="17.600000381469727" width="110.35050201416016" height="14.600000381469727" style="fill: transparent;"/><text xml:space="preserve" x="6" y="28.140000343322754" style="font-family: -apple-system, BlinkMacSystemFont, &quot;Segoe WPC&quot;, &quot;Segoe UI&quot;, &quot;Ubuntu&quot;, &quot;Droid Sans&quot;, sans-serif, &quot;PingFang SC&quot;; font-size: 9px; font-weight: normal; text-rendering: geometricprecision; user-select: none;"><title>float32[282]</title><tspan style="font-weight: bold;">beta</tspan><tspan>〈282〉</tspan></text></g><g class="node-argument"><rect rx="3" ry="3" x="3" y="32.20000076293945" width="110.35050201416016" height="14.600000381469727" style="fill: transparent;"/><text xml:space="preserve" x="6" y="42.74000072479248" style="font-family: -apple-system, BlinkMacSystemFont, &quot;Segoe WPC&quot;, &quot;Segoe UI&quot;, &quot;Ubuntu&quot;, &quot;Droid Sans&quot;, sans-serif, &quot;PingFang SC&quot;; font-size: 9px; font-weight: normal; text-rendering: geometricprecision; user-select: none;"><title>float32[282]</title><tspan style="font-weight: bold;">moving_mean</tspan><tspan>〈282〉</tspan></text></g><g class="node-argument"><rect rx="3" ry="3" x="3" y="46.80000114440918" width="110.35050201416016" height="14.600000381469727" style="fill: transparent;"/><text xml:space="preserve" x="6" y="57.34000110626221" style="font-family: -apple-system, BlinkMacSystemFont, &quot;Segoe WPC&quot;, &quot;Segoe UI&quot;, &quot;Ubuntu&quot;, &quot;Droid Sans&quot;, sans-serif, &quot;PingFang SC&quot;; font-size: 9px; font-weight: normal; text-rendering: geometricprecision; user-select: none;"><title>float32[282]</title><tspan style="font-weight: bold;">moving_variance</tspan><tspan>〈282〉</tspan></text></g><line class="node" x1="0" x2="116.35050201416016" y1="0" y2="0" style="stroke: rgb(51, 51, 51); fill: none; stroke-width: 1px;"/></g><path class="node node-border" d="M5,0h106.35050201416016a5,5 0 0 1 5,5v75.38000202178955a5,5 0 0 1 -5,5h-106.35050201416016a5,5 0 0 1 -5,-5v-75.38000202178955a5,5 0 0 1 5,-5z" style="stroke: rgb(51, 51, 51); fill: none; stroke-width: 1px;"/></g><g id="node-name-dropout_2" class="node graph-node" style="" transform="translate(32.55167007446289,589.0000095367432)"><g class="node-item node-item-type node-item-type-dropout" transform="translate(0,0)"><path d="M5,0h41.52466583251953a5,5 0 0 1 5,5v10.980000495910645a5,5 0 0 1 -5,5h-41.52466583251953a5,5 0 0 1 -5,-5v-10.980000495910645a5,5 0 0 1 5,-5z" style="stroke: rgb(0, 0, 0); fill: rgb(69, 71, 112); stroke-width: 0px;"/><text x="6" y="14.642499923706055" style="font-family: -apple-system, BlinkMacSystemFont, &quot;Segoe WPC&quot;, &quot;Segoe UI&quot;, &quot;Ubuntu&quot;, &quot;Droid Sans&quot;, sans-serif, &quot;PingFang SC&quot;; font-size: 11px; text-rendering: geometricprecision; user-select: none; fill: rgb(255, 255, 255);">Dropout</text><title>dropout_2</title></g><path class="node node-border" d="M5,0h41.52466583251953a5,5 0 0 1 5,5v10.980000495910645a5,5 0 0 1 -5,5h-41.52466583251953a5,5 0 0 1 -5,-5v-10.980000495910645a5,5 0 0 1 5,-5z" style="stroke: rgb(51, 51, 51); fill: none; stroke-width: 1px;"/></g><g id="node-name-output_layer" class="node graph-node" style="" transform="translate(13.419754028320312,629.9800100326538)"><g class="node-item node-item-type node-item-type-layer" transform="translate(0,0)"><path d="M5,0h79.78849792480469a5,5 0 0 1 5,5v15.980000495910645a0,0 0 0 1 0,0h-89.78849792480469a0,0 0 0 1 0,0v-15.980000495910645a5,5 0 0 1 5,-5z" style="stroke: rgb(0, 0, 0); fill: rgb(51, 85, 136); stroke-width: 0px;"/><text x="6" y="14.642499923706055" style="font-family: -apple-system, BlinkMacSystemFont, &quot;Segoe WPC&quot;, &quot;Segoe UI&quot;, &quot;Ubuntu&quot;, &quot;Droid Sans&quot;, sans-serif, &quot;PingFang SC&quot;; font-size: 11px; text-rendering: geometricprecision; user-select: none; fill: rgb(255, 255, 255);">Dense</text><title>output_layer</title></g><g class="node-argument-list" transform="translate(0,20.980000495910645)"><path d="M0,0h89.78849792480469a0,0 0 0 1 0,0v35.20000076293945a0,0 0 0 1 0,0h-89.78849792480469a0,0 0 0 1 0,0v-35.20000076293945a0,0 0 0 1 0,0z" style="stroke: rgb(0, 0, 0); fill: rgb(255, 255, 255); stroke-width: 0px;"/><g class="node-argument"><rect rx="3" ry="3" x="3" y="3" width="83.78849792480469" height="14.600000381469727" style="fill: transparent;"/><text xml:space="preserve" x="6" y="13.539999961853027" style="font-family: -apple-system, BlinkMacSystemFont, &quot;Segoe WPC&quot;, &quot;Segoe UI&quot;, &quot;Ubuntu&quot;, &quot;Droid Sans&quot;, sans-serif, &quot;PingFang SC&quot;; font-size: 9px; font-weight: normal; text-rendering: geometricprecision; user-select: none;"><title>float32[282,141]</title><tspan style="font-weight: bold;">kernel</tspan><tspan>〈282×141〉</tspan></text></g><g class="node-argument"><rect rx="3" ry="3" x="3" y="17.600000381469727" width="83.78849792480469" height="14.600000381469727" style="fill: transparent;"/><text xml:space="preserve" x="6" y="28.140000343322754" style="font-family: -apple-system, BlinkMacSystemFont, &quot;Segoe WPC&quot;, &quot;Segoe UI&quot;, &quot;Ubuntu&quot;, &quot;Droid Sans&quot;, sans-serif, &quot;PingFang SC&quot;; font-size: 9px; font-weight: normal; text-rendering: geometricprecision; user-select: none;"><title>float32[141]</title><tspan style="font-weight: bold;">bias</tspan><tspan>〈141〉</tspan></text></g><line class="node" x1="0" x2="89.78849792480469" y1="0" y2="0" style="stroke: rgb(51, 51, 51); fill: none; stroke-width: 1px;"/></g><g class="node-item node-item-type node-item-type-activation" transform="translate(0,56.1800012588501)"><path d="M0,0h89.78849792480469a0,0 0 0 1 0,0v15.980000495910645a5,5 0 0 1 -5,5h-79.78849792480469a5,5 0 0 1 -5,-5v-15.980000495910645a0,0 0 0 1 0,0z" style="stroke: rgb(0, 0, 0); fill: rgb(112, 41, 33); stroke-width: 0px;"/><text x="6" y="14.642499923706055" style="font-family: -apple-system, BlinkMacSystemFont, &quot;Segoe WPC&quot;, &quot;Segoe UI&quot;, &quot;Ubuntu&quot;, &quot;Droid Sans&quot;, sans-serif, &quot;PingFang SC&quot;; font-size: 11px; text-rendering: geometricprecision; user-select: none; fill: rgb(255, 255, 255);">Activation</text></g><line class="node" x1="0" x2="89.78849792480469" y1="56.1800012588501" y2="56.1800012588501" style="stroke: rgb(51, 51, 51); fill: none; stroke-width: 1px;"/><path class="node node-border" d="M5,0h79.78849792480469a5,5 0 0 1 5,5v67.16000175476074a5,5 0 0 1 -5,5h-79.78849792480469a5,5 0 0 1 -5,-5v-67.16000175476074a5,5 0 0 1 5,-5z" style="stroke: rgb(51, 51, 51); fill: none; stroke-width: 1px;"/></g><g class="node" style="" transform="translate(22.350088119506836,727.1400117874146)"><g class="node-item graph-item-output" transform="translate(0,0)"><path d="M5,0h61.92782974243164a5,5 0 0 1 5,5v10.980000495910645a5,5 0 0 1 -5,5h-61.92782974243164a5,5 0 0 1 -5,-5v-10.980000495910645a5,5 0 0 1 5,-5z" style="stroke: rgb(0, 0, 0); fill: rgb(238, 238, 238); stroke-width: 0px;"/><text x="6" y="14.642499923706055" style="font-family: -apple-system, BlinkMacSystemFont, &quot;Segoe WPC&quot;, &quot;Segoe UI&quot;, &quot;Ubuntu&quot;, &quot;Droid Sans&quot;, sans-serif, &quot;PingFang SC&quot;; font-size: 11px; text-rendering: geometricprecision; user-select: none;">output_layer</text></g><path class="node node-border" d="M5,0h61.92782974243164a5,5 0 0 1 5,5v10.980000495910645a5,5 0 0 1 -5,5h-61.92782974243164a5,5 0 0 1 -5,-5v-10.980000495910645a5,5 0 0 1 5,-5z" style="stroke: rgb(51, 51, 51); fill: none; stroke-width: 1px;"/></g></g></g></svg>