<svg xmlns="http://www.w3.org/2000/svg" id="export" class="canvas" preserveAspectRatio="xMidYMid meet" style="" width="127" height="508"><rect id="background" fill="#fff" pointer-events="all" width="127" height="508"/><g id="origin" transform="translate(5.770999908447266, 5.771000862121582) scale(1)"><g id="clusters" class="clusters"/><g id="edge-paths" class="edge-paths"><defs><marker id="arrowhead" viewBox="0 0 10 10" refX="9" refY="5" markerUnits="strokeWidth" markerWidth="8" markerHeight="6" orient="auto" style="fill: rgb(0, 0, 0);"><path d="M 0 0 L 10 5 L 0 10 L 4 5 z" style="stroke-width: 1px;"/></marker><marker id="arrowhead-select" viewBox="0 0 10 10" refX="9" refY="5" markerUnits="strokeWidth" markerWidth="8" markerHeight="6" orient="auto" style="fill: rgba(220, 0, 0, 0.9);"><path d="M 0 0 L 10 5 L 0 10 L 4 5 z" style="stroke-width: 1px;"/></marker><marker id="arrowhead-hover" viewBox="0 0 10 10" refX="9" refY="5" markerUnits="strokeWidth" markerWidth="8" markerHeight="6" orient="auto" style="fill: rgba(220, 0, 0, 0.9);"><path d="M 0 0 L 10 5 L 0 10 L 4 5 z" style="stroke-width: 1px;"/></marker></defs><path id="edge-input_layer_6" class="edge-path" d="M57.709999084472656,20.980000495910645L57.709999084472656,22.646667162577312C57.709999084472656,24.313333829243977,57.709999084472656,27.646667162577312,57.709999084472656,30.980000495910645C57.709999084472656,34.31333382924398,57.709999084472656,37.64666716257731,57.709999084472656,40.980000495910645C57.709999084472656,44.31333382924398,57.709999084472656,47.64666716257731,57.709999084472656,50.980000495910645C57.709999084472656,54.31333382924398,57.709999084472656,57.64666716257731,57.709999084472656,59.31333382924398L57.709999084472656,60.980000495910645" style="stroke: rgb(0, 0, 0); stroke-width: 1px; fill: none; marker-end: url(&quot;#arrowhead&quot;);"/><path class="edge-path-hit-test" d="M57.709999084472656,20.980000495910645L57.709999084472656,22.646667162577312C57.709999084472656,24.313333829243977,57.709999084472656,27.646667162577312,57.709999084472656,30.980000495910645C57.709999084472656,34.31333382924398,57.709999084472656,37.64666716257731,57.709999084472656,40.980000495910645C57.709999084472656,44.31333382924398,57.709999084472656,47.64666716257731,57.709999084472656,50.980000495910645C57.709999084472656,54.31333382924398,57.709999084472656,57.64666716257731,57.709999084472656,59.31333382924398L57.709999084472656,60.980000495910645" style="pointer-events: stroke; stroke-width: 0.5em; fill: none; stroke: rgb(0, 0, 0); stroke-opacity: 0.001;"/><path id="edge-resnet50" class="edge-path" d="M57.709999084472656,81.96000099182129L57.709999084472656,83.62666765848796C57.709999084472656,85.29333432515462,57.709999084472656,88.62666765848796,57.709999084472656,91.96000099182129C57.709999084472656,95.29333432515462,57.709999084472656,98.62666765848796,57.709999084472656,100.29333432515462L57.709999084472656,101.96000099182129" style="stroke: rgb(0, 0, 0); stroke-width: 1px; fill: none; marker-end: url(&quot;#arrowhead&quot;);"/><path class="edge-path-hit-test" d="M57.709999084472656,81.96000099182129L57.709999084472656,83.62666765848796C57.709999084472656,85.29333432515462,57.709999084472656,88.62666765848796,57.709999084472656,91.96000099182129C57.709999084472656,95.29333432515462,57.709999084472656,98.62666765848796,57.709999084472656,100.29333432515462L57.709999084472656,101.96000099182129" style="pointer-events: stroke; stroke-width: 0.5em; fill: none; stroke: rgb(0, 0, 0); stroke-opacity: 0.001;"/><path id="edge-dense_1" class="edge-path" d="M57.709999084472656,179.12000274658203L57.709999084472656,180.7866694132487C57.709999084472656,182.45333607991537,57.709999084472656,185.7866694132487,57.709999084472656,189.12000274658203C57.709999084472656,192.45333607991537,57.709999084472656,195.7866694132487,57.709999084472656,197.45333607991537L57.709999084472656,199.12000274658203" style="stroke: rgb(0, 0, 0); stroke-width: 1px; fill: none; marker-end: url(&quot;#arrowhead&quot;);"/><path class="edge-path-hit-test" d="M57.709999084472656,179.12000274658203L57.709999084472656,180.7866694132487C57.709999084472656,182.45333607991537,57.709999084472656,185.7866694132487,57.709999084472656,189.12000274658203C57.709999084472656,192.45333607991537,57.709999084472656,195.7866694132487,57.709999084472656,197.45333607991537L57.709999084472656,199.12000274658203" style="pointer-events: stroke; stroke-width: 0.5em; fill: none; stroke: rgb(0, 0, 0); stroke-opacity: 0.001;"/><path id="edge-dropout_1" class="edge-path" d="M57.709999084472656,220.10000324249268L57.709999084472656,221.76666990915933C57.709999084472656,223.43333657582602,57.709999084472656,226.76666990915933,57.709999084472656,230.10000324249268C57.709999084472656,233.43333657582602,57.709999084472656,236.76666990915933,57.709999084472656,238.43333657582602L57.709999084472656,240.10000324249268" style="stroke: rgb(0, 0, 0); stroke-width: 1px; fill: none; marker-end: url(&quot;#arrowhead&quot;);"/><path class="edge-path-hit-test" d="M57.709999084472656,220.10000324249268L57.709999084472656,221.76666990915933C57.709999084472656,223.43333657582602,57.709999084472656,226.76666990915933,57.709999084472656,230.10000324249268C57.709999084472656,233.43333657582602,57.709999084472656,236.76666990915933,57.709999084472656,238.43333657582602L57.709999084472656,240.10000324249268" style="pointer-events: stroke; stroke-width: 0.5em; fill: none; stroke: rgb(0, 0, 0); stroke-opacity: 0.001;"/><path id="edge-dense_2" class="edge-path" d="M57.709999084472656,317.2600049972534L57.709999084472656,318.9266716639201C57.709999084472656,320.59333833058673,57.709999084472656,323.9266716639201,57.709999084472656,327.2600049972534C57.709999084472656,330.59333833058673,57.709999084472656,333.9266716639201,57.709999084472656,335.59333833058673L57.709999084472656,337.2600049972534" style="stroke: rgb(0, 0, 0); stroke-width: 1px; fill: none; marker-end: url(&quot;#arrowhead&quot;);"/><path class="edge-path-hit-test" d="M57.709999084472656,317.2600049972534L57.709999084472656,318.9266716639201C57.709999084472656,320.59333833058673,57.709999084472656,323.9266716639201,57.709999084472656,327.2600049972534C57.709999084472656,330.59333833058673,57.709999084472656,333.9266716639201,57.709999084472656,335.59333833058673L57.709999084472656,337.2600049972534" style="pointer-events: stroke; stroke-width: 0.5em; fill: none; stroke: rgb(0, 0, 0); stroke-opacity: 0.001;"/><path id="edge-global_avg_pooling" class="edge-path" d="M57.709999084472656,358.24000549316406L57.709999084472656,359.90667215983075C57.709999084472656,361.5733388264974,57.709999084472656,364.90667215983075,57.709999084472656,368.24000549316406C57.709999084472656,371.5733388264974,57.709999084472656,374.90667215983075,57.709999084472656,376.5733388264974L57.709999084472656,378.24000549316406" style="stroke: rgb(0, 0, 0); stroke-width: 1px; fill: none; marker-end: url(&quot;#arrowhead&quot;);"/><path class="edge-path-hit-test" d="M57.709999084472656,358.24000549316406L57.709999084472656,359.90667215983075C57.709999084472656,361.5733388264974,57.709999084472656,364.90667215983075,57.709999084472656,368.24000549316406C57.709999084472656,371.5733388264974,57.709999084472656,374.90667215983075,57.709999084472656,376.5733388264974L57.709999084472656,378.24000549316406" style="pointer-events: stroke; stroke-width: 0.5em; fill: none; stroke: rgb(0, 0, 0); stroke-opacity: 0.001;"/><path id="edge-output_layer" class="edge-path" d="M57.709999084472656,455.4000072479248L57.709999084472656,457.0666739145915C57.709999084472656,458.7333405812581,57.709999084472656,462.0666739145915,57.709999084472656,465.4000072479248C57.709999084472656,468.7333405812581,57.709999084472656,472.0666739145915,57.709999084472656,473.7333405812581L57.709999084472656,475.4000072479248" style="stroke: rgb(0, 0, 0); stroke-width: 1px; fill: none; marker-end: url(&quot;#arrowhead&quot;);"/><path class="edge-path-hit-test" d="M57.709999084472656,455.4000072479248L57.709999084472656,457.0666739145915C57.709999084472656,458.7333405812581,57.709999084472656,462.0666739145915,57.709999084472656,465.4000072479248C57.709999084472656,468.7333405812581,57.709999084472656,472.0666739145915,57.709999084472656,473.7333405812581L57.709999084472656,475.4000072479248" style="pointer-events: stroke; stroke-width: 0.5em; fill: none; stroke: rgb(0, 0, 0); stroke-opacity: 0.001;"/></g><g id="edge-labels" class="edge-labels"/><g id="nodes" class="nodes"><g id="input-name-input_layer_6" class="node graph-input" style="" transform="translate(18.896623611450195,0)"><g class="node-item graph-item-input" transform="translate(0,0)"><path d="M5,0h67.62675094604492a5,5 0 0 1 5,5v10.980000495910645a5,5 0 0 1 -5,5h-67.62675094604492a5,5 0 0 1 -5,-5v-10.980000495910645a5,5 0 0 1 5,-5z" style="stroke: rgb(0, 0, 0); fill: rgb(238, 238, 238); stroke-width: 0px;"/><text x="6" y="14.642499923706055" style="font-family: -apple-system, BlinkMacSystemFont, &quot;Segoe WPC&quot;, &quot;Segoe UI&quot;, &quot;Ubuntu&quot;, &quot;Droid Sans&quot;, sans-serif, &quot;PingFang SC&quot;; font-size: 11px; text-rendering: geometricprecision; user-select: none;">input_layer_6</text><title>float32</title></g><path class="node node-border" d="M5,0h67.62675094604492a5,5 0 0 1 5,5v10.980000495910645a5,5 0 0 1 -5,5h-67.62675094604492a5,5 0 0 1 -5,-5v-10.980000495910645a5,5 0 0 1 5,-5z" style="stroke: rgb(51, 51, 51); fill: none; stroke-width: 1px;"/></g><g id="node-name-resnet50" class="node graph-node" style="" transform="translate(20.805248975753784,60.980000495910645)"><g class="node-item node-item-type" transform="translate(0,0)"><path d="M5,0h50.77799987792969a0,0 0 0 1 0,0v20.980000495910645a0,0 0 0 1 0,0h-50.77799987792969a5,5 0 0 1 -5,-5v-10.980000495910645a5,5 0 0 1 5,-5z" style="stroke: rgb(0, 0, 0); fill: rgb(0, 0, 0); stroke-width: 0px;"/><text x="6" y="14.642499923706055" style="font-family: -apple-system, BlinkMacSystemFont, &quot;Segoe WPC&quot;, &quot;Segoe UI&quot;, &quot;Ubuntu&quot;, &quot;Droid Sans&quot;, sans-serif, &quot;PingFang SC&quot;; font-size: 11px; text-rendering: geometricprecision; user-select: none; fill: rgb(255, 255, 255);">resnet50</text><title>resnet50</title></g><g class="node-item node-item-type" transform="translate(55.77799987792969,0)"><path d="M0,0h13.031500339508057a5,5 0 0 1 5,5v10.980000495910645a5,5 0 0 1 -5,5h-13.031500339508057a0,0 0 0 1 0,0v-20.980000495910645a0,0 0 0 1 0,0z" style="stroke: rgb(0, 0, 0); fill: rgb(0, 0, 0); stroke-width: 0px;"/><text x="6" y="14.642499923706055" style="font-family: -apple-system, BlinkMacSystemFont, &quot;Segoe WPC&quot;, &quot;Segoe UI&quot;, &quot;Ubuntu&quot;, &quot;Droid Sans&quot;, sans-serif, &quot;PingFang SC&quot;; font-size: 11px; text-rendering: geometricprecision; user-select: none; fill: rgb(255, 255, 255);">ƒ</text><title>Show Function Definition</title></g><line class="node" x1="55.77799987792969" x2="55.77799987792969" y1="0" y2="20.980000495910645" style="stroke: rgb(51, 51, 51); fill: none; stroke-width: 1px;"/><path class="node node-border" d="M5,0h63.809500217437744a5,5 0 0 1 5,5v10.980000495910645a5,5 0 0 1 -5,5h-63.809500217437744a5,5 0 0 1 -5,-5v-10.980000495910645a5,5 0 0 1 5,-5z" style="stroke: rgb(51, 51, 51); fill: none; stroke-width: 1px;"/></g><g id="node-name-dense_1" class="node graph-node" style="" transform="translate(9.913249969482422,101.96000099182129)"><g class="node-item node-item-type node-item-type-layer" transform="translate(0,0)"><path d="M5,0h85.59349822998047a5,5 0 0 1 5,5v15.980000495910645a0,0 0 0 1 0,0h-95.59349822998047a0,0 0 0 1 0,0v-15.980000495910645a5,5 0 0 1 5,-5z" style="stroke: rgb(0, 0, 0); fill: rgb(51, 85, 136); stroke-width: 0px;"/><text x="6" y="14.642499923706055" style="font-family: -apple-system, BlinkMacSystemFont, &quot;Segoe WPC&quot;, &quot;Segoe UI&quot;, &quot;Ubuntu&quot;, &quot;Droid Sans&quot;, sans-serif, &quot;PingFang SC&quot;; font-size: 11px; text-rendering: geometricprecision; user-select: none; fill: rgb(255, 255, 255);">Dense</text><title>dense_1</title></g><g class="node-argument-list" transform="translate(0,20.980000495910645)"><path d="M0,0h95.59349822998047a0,0 0 0 1 0,0v35.20000076293945a0,0 0 0 1 0,0h-95.59349822998047a0,0 0 0 1 0,0v-35.20000076293945a0,0 0 0 1 0,0z" style="stroke: rgb(0, 0, 0); fill: rgb(255, 255, 255); stroke-width: 0px;"/><g class="node-argument"><rect rx="3" ry="3" x="3" y="3" width="89.59349822998047" height="14.600000381469727" style="fill: transparent;"/><text xml:space="preserve" x="6" y="13.539999961853027" style="font-family: -apple-system, BlinkMacSystemFont, &quot;Segoe WPC&quot;, &quot;Segoe UI&quot;, &quot;Ubuntu&quot;, &quot;Droid Sans&quot;, sans-serif, &quot;PingFang SC&quot;; font-size: 9px; font-weight: normal; text-rendering: geometricprecision; user-select: none;"><title>float32[2048,141]</title><tspan style="font-weight: bold;">kernel</tspan><tspan>〈2048×141〉</tspan></text></g><g class="node-argument"><rect rx="3" ry="3" x="3" y="17.600000381469727" width="89.59349822998047" height="14.600000381469727" style="fill: transparent;"/><text xml:space="preserve" x="6" y="28.140000343322754" style="font-family: -apple-system, BlinkMacSystemFont, &quot;Segoe WPC&quot;, &quot;Segoe UI&quot;, &quot;Ubuntu&quot;, &quot;Droid Sans&quot;, sans-serif, &quot;PingFang SC&quot;; font-size: 9px; font-weight: normal; text-rendering: geometricprecision; user-select: none;"><title>float32[141]</title><tspan style="font-weight: bold;">bias</tspan><tspan>〈141〉</tspan></text></g><line class="node" x1="0" x2="95.59349822998047" y1="0" y2="0" style="stroke: rgb(51, 51, 51); fill: none; stroke-width: 1px;"/></g><g class="node-item node-item-type node-item-type-activation" transform="translate(0,56.1800012588501)"><path d="M0,0h95.59349822998047a0,0 0 0 1 0,0v15.980000495910645a5,5 0 0 1 -5,5h-85.59349822998047a5,5 0 0 1 -5,-5v-15.980000495910645a0,0 0 0 1 0,0z" style="stroke: rgb(0, 0, 0); fill: rgb(112, 41, 33); stroke-width: 0px;"/><text x="6" y="14.642499923706055" style="font-family: -apple-system, BlinkMacSystemFont, &quot;Segoe WPC&quot;, &quot;Segoe UI&quot;, &quot;Ubuntu&quot;, &quot;Droid Sans&quot;, sans-serif, &quot;PingFang SC&quot;; font-size: 11px; text-rendering: geometricprecision; user-select: none; fill: rgb(255, 255, 255);">Activation</text></g><line class="node" x1="0" x2="95.59349822998047" y1="56.1800012588501" y2="56.1800012588501" style="stroke: rgb(51, 51, 51); fill: none; stroke-width: 1px;"/><path class="node node-border" d="M5,0h85.59349822998047a5,5 0 0 1 5,5v67.16000175476074a5,5 0 0 1 -5,5h-85.59349822998047a5,5 0 0 1 -5,-5v-67.16000175476074a5,5 0 0 1 5,-5z" style="stroke: rgb(51, 51, 51); fill: none; stroke-width: 1px;"/></g><g id="node-name-dropout_1" class="node graph-node" style="" transform="translate(31.94766616821289,199.12000274658203)"><g class="node-item node-item-type node-item-type-dropout" transform="translate(0,0)"><path d="M5,0h41.52466583251953a5,5 0 0 1 5,5v10.980000495910645a5,5 0 0 1 -5,5h-41.52466583251953a5,5 0 0 1 -5,-5v-10.980000495910645a5,5 0 0 1 5,-5z" style="stroke: rgb(0, 0, 0); fill: rgb(69, 71, 112); stroke-width: 0px;"/><text x="6" y="14.642499923706055" style="font-family: -apple-system, BlinkMacSystemFont, &quot;Segoe WPC&quot;, &quot;Segoe UI&quot;, &quot;Ubuntu&quot;, &quot;Droid Sans&quot;, sans-serif, &quot;PingFang SC&quot;; font-size: 11px; text-rendering: geometricprecision; user-select: none; fill: rgb(255, 255, 255);">Dropout</text><title>dropout_1</title></g><path class="node node-border" d="M5,0h41.52466583251953a5,5 0 0 1 5,5v10.980000495910645a5,5 0 0 1 -5,5h-41.52466583251953a5,5 0 0 1 -5,-5v-10.980000495910645a5,5 0 0 1 5,-5z" style="stroke: rgb(51, 51, 51); fill: none; stroke-width: 1px;"/></g><g id="node-name-dense_2" class="node graph-node" style="" transform="translate(13.896873474121094,240.10000324249268)"><g class="node-item node-item-type node-item-type-layer" transform="translate(0,0)"><path d="M5,0h77.62625122070312a5,5 0 0 1 5,5v15.980000495910645a0,0 0 0 1 0,0h-87.62625122070312a0,0 0 0 1 0,0v-15.980000495910645a5,5 0 0 1 5,-5z" style="stroke: rgb(0, 0, 0); fill: rgb(51, 85, 136); stroke-width: 0px;"/><text x="6" y="14.642499923706055" style="font-family: -apple-system, BlinkMacSystemFont, &quot;Segoe WPC&quot;, &quot;Segoe UI&quot;, &quot;Ubuntu&quot;, &quot;Droid Sans&quot;, sans-serif, &quot;PingFang SC&quot;; font-size: 11px; text-rendering: geometricprecision; user-select: none; fill: rgb(255, 255, 255);">Dense</text><title>dense_2</title></g><g class="node-argument-list" transform="translate(0,20.980000495910645)"><path d="M0,0h87.62625122070312a0,0 0 0 1 0,0v35.20000076293945a0,0 0 0 1 0,0h-87.62625122070312a0,0 0 0 1 0,0v-35.20000076293945a0,0 0 0 1 0,0z" style="stroke: rgb(0, 0, 0); fill: rgb(255, 255, 255); stroke-width: 0px;"/><g class="node-argument"><rect rx="3" ry="3" x="3" y="3" width="81.62625122070312" height="14.600000381469727" style="fill: transparent;"/><text xml:space="preserve" x="6" y="13.539999961853027" style="font-family: -apple-system, BlinkMacSystemFont, &quot;Segoe WPC&quot;, &quot;Segoe UI&quot;, &quot;Ubuntu&quot;, &quot;Droid Sans&quot;, sans-serif, &quot;PingFang SC&quot;; font-size: 9px; font-weight: normal; text-rendering: geometricprecision; user-select: none;"><title>float32[141,141]</title><tspan style="font-weight: bold;">kernel</tspan><tspan>〈141×141〉</tspan></text></g><g class="node-argument"><rect rx="3" ry="3" x="3" y="17.600000381469727" width="81.62625122070312" height="14.600000381469727" style="fill: transparent;"/><text xml:space="preserve" x="6" y="28.140000343322754" style="font-family: -apple-system, BlinkMacSystemFont, &quot;Segoe WPC&quot;, &quot;Segoe UI&quot;, &quot;Ubuntu&quot;, &quot;Droid Sans&quot;, sans-serif, &quot;PingFang SC&quot;; font-size: 9px; font-weight: normal; text-rendering: geometricprecision; user-select: none;"><title>float32[141]</title><tspan style="font-weight: bold;">bias</tspan><tspan>〈141〉</tspan></text></g><line class="node" x1="0" x2="87.62625122070312" y1="0" y2="0" style="stroke: rgb(51, 51, 51); fill: none; stroke-width: 1px;"/></g><g class="node-item node-item-type node-item-type-activation" transform="translate(0,56.1800012588501)"><path d="M0,0h87.62625122070312a0,0 0 0 1 0,0v15.980000495910645a5,5 0 0 1 -5,5h-77.62625122070312a5,5 0 0 1 -5,-5v-15.980000495910645a0,0 0 0 1 0,0z" style="stroke: rgb(0, 0, 0); fill: rgb(112, 41, 33); stroke-width: 0px;"/><text x="6" y="14.642499923706055" style="font-family: -apple-system, BlinkMacSystemFont, &quot;Segoe WPC&quot;, &quot;Segoe UI&quot;, &quot;Ubuntu&quot;, &quot;Droid Sans&quot;, sans-serif, &quot;PingFang SC&quot;; font-size: 11px; text-rendering: geometricprecision; user-select: none; fill: rgb(255, 255, 255);">Activation</text></g><line class="node" x1="0" x2="87.62625122070312" y1="56.1800012588501" y2="56.1800012588501" style="stroke: rgb(51, 51, 51); fill: none; stroke-width: 1px;"/><path class="node node-border" d="M5,0h77.62625122070312a5,5 0 0 1 5,5v67.16000175476074a5,5 0 0 1 -5,5h-77.62625122070312a5,5 0 0 1 -5,-5v-67.16000175476074a5,5 0 0 1 5,-5z" style="stroke: rgb(51, 51, 51); fill: none; stroke-width: 1px;"/></g><g id="node-name-global_avg_pooling" class="node graph-node" style="" transform="translate(0,337.2600049972534)"><g class="node-item node-item-type node-item-type-pool" transform="translate(0,0)"><path d="M5,0h105.41999816894531a5,5 0 0 1 5,5v10.980000495910645a5,5 0 0 1 -5,5h-105.41999816894531a5,5 0 0 1 -5,-5v-10.980000495910645a5,5 0 0 1 5,-5z" style="stroke: rgb(0, 0, 0); fill: rgb(51, 85, 51); stroke-width: 0px;"/><text x="6" y="14.642499923706055" style="font-family: -apple-system, BlinkMacSystemFont, &quot;Segoe WPC&quot;, &quot;Segoe UI&quot;, &quot;Ubuntu&quot;, &quot;Droid Sans&quot;, sans-serif, &quot;PingFang SC&quot;; font-size: 11px; text-rendering: geometricprecision; user-select: none; fill: rgb(255, 255, 255);">GlobalAve…Pooling2D</text><title>global_avg_pooling</title></g><path class="node node-border" d="M5,0h105.41999816894531a5,5 0 0 1 5,5v10.980000495910645a5,5 0 0 1 -5,5h-105.41999816894531a5,5 0 0 1 -5,-5v-10.980000495910645a5,5 0 0 1 5,-5z" style="stroke: rgb(51, 51, 51); fill: none; stroke-width: 1px;"/></g><g id="node-name-output_layer" class="node graph-node" style="" transform="translate(13.896873474121094,378.24000549316406)"><g class="node-item node-item-type node-item-type-layer" transform="translate(0,0)"><path d="M5,0h77.62625122070312a5,5 0 0 1 5,5v15.980000495910645a0,0 0 0 1 0,0h-87.62625122070312a0,0 0 0 1 0,0v-15.980000495910645a5,5 0 0 1 5,-5z" style="stroke: rgb(0, 0, 0); fill: rgb(51, 85, 136); stroke-width: 0px;"/><text x="6" y="14.642499923706055" style="font-family: -apple-system, BlinkMacSystemFont, &quot;Segoe WPC&quot;, &quot;Segoe UI&quot;, &quot;Ubuntu&quot;, &quot;Droid Sans&quot;, sans-serif, &quot;PingFang SC&quot;; font-size: 11px; text-rendering: geometricprecision; user-select: none; fill: rgb(255, 255, 255);">Dense</text><title>output_layer</title></g><g class="node-argument-list" transform="translate(0,20.980000495910645)"><path d="M0,0h87.62625122070312a0,0 0 0 1 0,0v35.20000076293945a0,0 0 0 1 0,0h-87.62625122070312a0,0 0 0 1 0,0v-35.20000076293945a0,0 0 0 1 0,0z" style="stroke: rgb(0, 0, 0); fill: rgb(255, 255, 255); stroke-width: 0px;"/><g class="node-argument"><rect rx="3" ry="3" x="3" y="3" width="81.62625122070312" height="14.600000381469727" style="fill: transparent;"/><text xml:space="preserve" x="6" y="13.539999961853027" style="font-family: -apple-system, BlinkMacSystemFont, &quot;Segoe WPC&quot;, &quot;Segoe UI&quot;, &quot;Ubuntu&quot;, &quot;Droid Sans&quot;, sans-serif, &quot;PingFang SC&quot;; font-size: 9px; font-weight: normal; text-rendering: geometricprecision; user-select: none;"><title>float32[141,141]</title><tspan style="font-weight: bold;">kernel</tspan><tspan>〈141×141〉</tspan></text></g><g class="node-argument"><rect rx="3" ry="3" x="3" y="17.600000381469727" width="81.62625122070312" height="14.600000381469727" style="fill: transparent;"/><text xml:space="preserve" x="6" y="28.140000343322754" style="font-family: -apple-system, BlinkMacSystemFont, &quot;Segoe WPC&quot;, &quot;Segoe UI&quot;, &quot;Ubuntu&quot;, &quot;Droid Sans&quot;, sans-serif, &quot;PingFang SC&quot;; font-size: 9px; font-weight: normal; text-rendering: geometricprecision; user-select: none;"><title>float32[141]</title><tspan style="font-weight: bold;">bias</tspan><tspan>〈141〉</tspan></text></g><line class="node" x1="0" x2="87.62625122070312" y1="0" y2="0" style="stroke: rgb(51, 51, 51); fill: none; stroke-width: 1px;"/></g><g class="node-item node-item-type node-item-type-activation" transform="translate(0,56.1800012588501)"><path d="M0,0h87.62625122070312a0,0 0 0 1 0,0v15.980000495910645a5,5 0 0 1 -5,5h-77.62625122070312a5,5 0 0 1 -5,-5v-15.980000495910645a0,0 0 0 1 0,0z" style="stroke: rgb(0, 0, 0); fill: rgb(112, 41, 33); stroke-width: 0px;"/><text x="6" y="14.642499923706055" style="font-family: -apple-system, BlinkMacSystemFont, &quot;Segoe WPC&quot;, &quot;Segoe UI&quot;, &quot;Ubuntu&quot;, &quot;Droid Sans&quot;, sans-serif, &quot;PingFang SC&quot;; font-size: 11px; text-rendering: geometricprecision; user-select: none; fill: rgb(255, 255, 255);">Activation</text></g><line class="node" x1="0" x2="87.62625122070312" y1="56.1800012588501" y2="56.1800012588501" style="stroke: rgb(51, 51, 51); fill: none; stroke-width: 1px;"/><path class="node node-border" d="M5,0h77.62625122070312a5,5 0 0 1 5,5v67.16000175476074a5,5 0 0 1 -5,5h-77.62625122070312a5,5 0 0 1 -5,-5v-67.16000175476074a5,5 0 0 1 5,-5z" style="stroke: rgb(51, 51, 51); fill: none; stroke-width: 1px;"/></g><g class="node" style="" transform="translate(21.746084213256836,475.4000072479248)"><g class="node-item graph-item-output" transform="translate(0,0)"><path d="M5,0h61.92782974243164a5,5 0 0 1 5,5v10.980000495910645a5,5 0 0 1 -5,5h-61.92782974243164a5,5 0 0 1 -5,-5v-10.980000495910645a5,5 0 0 1 5,-5z" style="stroke: rgb(0, 0, 0); fill: rgb(238, 238, 238); stroke-width: 0px;"/><text x="6" y="14.642499923706055" style="font-family: -apple-system, BlinkMacSystemFont, &quot;Segoe WPC&quot;, &quot;Segoe UI&quot;, &quot;Ubuntu&quot;, &quot;Droid Sans&quot;, sans-serif, &quot;PingFang SC&quot;; font-size: 11px; text-rendering: geometricprecision; user-select: none;">output_layer</text></g><path class="node node-border" d="M5,0h61.92782974243164a5,5 0 0 1 5,5v10.980000495910645a5,5 0 0 1 -5,5h-61.92782974243164a5,5 0 0 1 -5,-5v-10.980000495910645a5,5 0 0 1 5,-5z" style="stroke: rgb(51, 51, 51); fill: none; stroke-width: 1px;"/></g></g></g></svg>