<svg xmlns="http://www.w3.org/2000/svg" id="export" class="canvas" preserveAspectRatio="xMidYMid meet" style="" width="129" height="801"><rect id="background" fill="#fff" pointer-events="all" width="129" height="801"/><g id="origin" transform="translate(5.834024810791016, 5.834025764465332) scale(1)"><g id="clusters" class="clusters"/><g id="edge-paths" class="edge-paths"><defs><marker id="arrowhead" viewBox="0 0 10 10" refX="9" refY="5" markerUnits="strokeWidth" markerWidth="8" markerHeight="6" orient="auto" style="fill: rgb(0, 0, 0);"><path d="M 0 0 L 10 5 L 0 10 L 4 5 z" style="stroke-width: 1px;"/></marker><marker id="arrowhead-select" viewBox="0 0 10 10" refX="9" refY="5" markerUnits="strokeWidth" markerWidth="8" markerHeight="6" orient="auto" style="fill: rgba(220, 0, 0, 0.9);"><path d="M 0 0 L 10 5 L 0 10 L 4 5 z" style="stroke-width: 1px;"/></marker><marker id="arrowhead-hover" viewBox="0 0 10 10" refX="9" refY="5" markerUnits="strokeWidth" markerWidth="8" markerHeight="6" orient="auto" style="fill: rgba(220, 0, 0, 0.9);"><path d="M 0 0 L 10 5 L 0 10 L 4 5 z" style="stroke-width: 1px;"/></marker></defs><path id="edge-input_layer_9" class="edge-path" d="M58.340248107910156,20.980000495910645L58.340248107910156,22.646667162577312C58.340248107910156,24.313333829243977,58.340248107910156,27.646667162577312,58.340248107910156,30.980000495910645C58.340248107910156,34.31333382924398,58.340248107910156,37.64666716257731,58.340248107910156,40.980000495910645C58.340248107910156,44.31333382924398,58.340248107910156,47.64666716257731,58.340248107910156,50.980000495910645C58.340248107910156,54.31333382924398,58.340248107910156,57.64666716257731,58.340248107910156,59.31333382924398L58.340248107910156,60.980000495910645" style="stroke: rgb(0, 0, 0); stroke-width: 1px; fill: none; marker-end: url(&quot;#arrowhead&quot;);"/><path class="edge-path-hit-test" d="M58.340248107910156,20.980000495910645L58.340248107910156,22.646667162577312C58.340248107910156,24.313333829243977,58.340248107910156,27.646667162577312,58.340248107910156,30.980000495910645C58.340248107910156,34.31333382924398,58.340248107910156,37.64666716257731,58.340248107910156,40.980000495910645C58.340248107910156,44.31333382924398,58.340248107910156,47.64666716257731,58.340248107910156,50.980000495910645C58.340248107910156,54.31333382924398,58.340248107910156,57.64666716257731,58.340248107910156,59.31333382924398L58.340248107910156,60.980000495910645" style="pointer-events: stroke; stroke-width: 0.5em; fill: none; stroke: rgb(0, 0, 0); stroke-opacity: 0.001;"/><path id="edge-vgg16" class="edge-path" d="M58.340248107910156,81.96000099182129L58.340248107910156,83.62666765848796C58.340248107910156,85.29333432515462,58.340248107910156,88.62666765848796,58.340248107910156,91.96000099182129C58.340248107910156,95.29333432515462,58.340248107910156,98.62666765848796,58.340248107910156,100.29333432515462L58.340248107910156,101.96000099182129" style="stroke: rgb(0, 0, 0); stroke-width: 1px; fill: none; marker-end: url(&quot;#arrowhead&quot;);"/><path class="edge-path-hit-test" d="M58.340248107910156,81.96000099182129L58.340248107910156,83.62666765848796C58.340248107910156,85.29333432515462,58.340248107910156,88.62666765848796,58.340248107910156,91.96000099182129C58.340248107910156,95.29333432515462,58.340248107910156,98.62666765848796,58.340248107910156,100.29333432515462L58.340248107910156,101.96000099182129" style="pointer-events: stroke; stroke-width: 0.5em; fill: none; stroke: rgb(0, 0, 0); stroke-opacity: 0.001;"/><path id="edge-global_avg_pooling" class="edge-path" d="M58.340248107910156,122.94000148773193L58.340248107910156,124.6066681543986C58.340248107910156,126.27333482106526,58.340248107910156,129.6066681543986,58.340248107910156,132.94000148773193C58.340248107910156,136.27333482106528,58.340248107910156,139.6066681543986,58.340248107910156,141.27333482106528L58.340248107910156,142.94000148773193" style="stroke: rgb(0, 0, 0); stroke-width: 1px; fill: none; marker-end: url(&quot;#arrowhead&quot;);"/><path class="edge-path-hit-test" d="M58.340248107910156,122.94000148773193L58.340248107910156,124.6066681543986C58.340248107910156,126.27333482106526,58.340248107910156,129.6066681543986,58.340248107910156,132.94000148773193C58.340248107910156,136.27333482106528,58.340248107910156,139.6066681543986,58.340248107910156,141.27333482106528L58.340248107910156,142.94000148773193" style="pointer-events: stroke; stroke-width: 0.5em; fill: none; stroke: rgb(0, 0, 0); stroke-opacity: 0.001;"/><path id="edge-dropout_1" class="edge-path" d="M58.340248107910156,163.92000198364258L58.340248107910156,165.58666865030924C58.340248107910156,167.25333531697592,58.340248107910156,170.58666865030924,58.340248107910156,173.92000198364258C58.340248107910156,177.25333531697592,58.340248107910156,180.58666865030924,58.340248107910156,182.25333531697592L58.340248107910156,183.92000198364258" style="stroke: rgb(0, 0, 0); stroke-width: 1px; fill: none; marker-end: url(&quot;#arrowhead&quot;);"/><path class="edge-path-hit-test" d="M58.340248107910156,163.92000198364258L58.340248107910156,165.58666865030924C58.340248107910156,167.25333531697592,58.340248107910156,170.58666865030924,58.340248107910156,173.92000198364258C58.340248107910156,177.25333531697592,58.340248107910156,180.58666865030924,58.340248107910156,182.25333531697592L58.340248107910156,183.92000198364258" style="pointer-events: stroke; stroke-width: 0.5em; fill: none; stroke: rgb(0, 0, 0); stroke-opacity: 0.001;"/><path id="edge-dense_1" class="edge-path" d="M58.340248107910156,261.0800037384033L58.340248107910156,262.74667040507C58.340248107910156,264.41333707173663,58.340248107910156,267.74667040507,58.340248107910156,271.0800037384033C58.340248107910156,274.41333707173663,58.340248107910156,277.74667040507,58.340248107910156,279.41333707173663L58.340248107910156,281.0800037384033" style="stroke: rgb(0, 0, 0); stroke-width: 1px; fill: none; marker-end: url(&quot;#arrowhead&quot;);"/><path class="edge-path-hit-test" d="M58.340248107910156,261.0800037384033L58.340248107910156,262.74667040507C58.340248107910156,264.41333707173663,58.340248107910156,267.74667040507,58.340248107910156,271.0800037384033C58.340248107910156,274.41333707173663,58.340248107910156,277.74667040507,58.340248107910156,279.41333707173663L58.340248107910156,281.0800037384033" style="pointer-events: stroke; stroke-width: 0.5em; fill: none; stroke: rgb(0, 0, 0); stroke-opacity: 0.001;"/><path id="edge-batch_norm_1" class="edge-path" d="M58.340248107910156,366.46000576019287L58.340248107910156,368.12667242685956C58.340248107910156,369.7933390935262,58.340248107910156,373.12667242685956,58.340248107910156,376.46000576019287C58.340248107910156,379.7933390935262,58.340248107910156,383.12667242685956,58.340248107910156,384.7933390935262L58.340248107910156,386.46000576019287" style="stroke: rgb(0, 0, 0); stroke-width: 1px; fill: none; marker-end: url(&quot;#arrowhead&quot;);"/><path class="edge-path-hit-test" d="M58.340248107910156,366.46000576019287L58.340248107910156,368.12667242685956C58.340248107910156,369.7933390935262,58.340248107910156,373.12667242685956,58.340248107910156,376.46000576019287C58.340248107910156,379.7933390935262,58.340248107910156,383.12667242685956,58.340248107910156,384.7933390935262L58.340248107910156,386.46000576019287" style="pointer-events: stroke; stroke-width: 0.5em; fill: none; stroke: rgb(0, 0, 0); stroke-opacity: 0.001;"/><path id="edge-dropout_2" class="edge-path" d="M58.340248107910156,407.4400062561035L58.340248107910156,409.1066729227702C58.340248107910156,410.77333958943683,58.340248107910156,414.1066729227702,58.340248107910156,417.4400062561035C58.340248107910156,420.77333958943683,58.340248107910156,424.1066729227702,58.340248107910156,425.77333958943683L58.340248107910156,427.4400062561035" style="stroke: rgb(0, 0, 0); stroke-width: 1px; fill: none; marker-end: url(&quot;#arrowhead&quot;);"/><path class="edge-path-hit-test" d="M58.340248107910156,407.4400062561035L58.340248107910156,409.1066729227702C58.340248107910156,410.77333958943683,58.340248107910156,414.1066729227702,58.340248107910156,417.4400062561035C58.340248107910156,420.77333958943683,58.340248107910156,424.1066729227702,58.340248107910156,425.77333958943683L58.340248107910156,427.4400062561035" style="pointer-events: stroke; stroke-width: 0.5em; fill: none; stroke: rgb(0, 0, 0); stroke-opacity: 0.001;"/><path id="edge-dense_2" class="edge-path" d="M58.340248107910156,504.60000801086426L58.340248107910156,506.26667467753094C58.340248107910156,507.9333413441976,58.340248107910156,511.26667467753094,58.340248107910156,514.6000080108643C58.340248107910156,517.9333413441976,58.340248107910156,521.2666746775309,58.340248107910156,522.9333413441976L58.340248107910156,524.6000080108643" style="stroke: rgb(0, 0, 0); stroke-width: 1px; fill: none; marker-end: url(&quot;#arrowhead&quot;);"/><path class="edge-path-hit-test" d="M58.340248107910156,504.60000801086426L58.340248107910156,506.26667467753094C58.340248107910156,507.9333413441976,58.340248107910156,511.26667467753094,58.340248107910156,514.6000080108643C58.340248107910156,517.9333413441976,58.340248107910156,521.2666746775309,58.340248107910156,522.9333413441976L58.340248107910156,524.6000080108643" style="pointer-events: stroke; stroke-width: 0.5em; fill: none; stroke: rgb(0, 0, 0); stroke-opacity: 0.001;"/><path id="edge-batch_norm_2" class="edge-path" d="M58.340248107910156,609.9800100326538L58.340248107910156,611.6466766993204C58.340248107910156,613.3133433659872,58.340248107910156,616.6466766993204,58.340248107910156,619.9800100326538C58.340248107910156,623.3133433659872,58.340248107910156,626.6466766993204,58.340248107910156,628.3133433659872L58.340248107910156,629.9800100326538" style="stroke: rgb(0, 0, 0); stroke-width: 1px; fill: none; marker-end: url(&quot;#arrowhead&quot;);"/><path class="edge-path-hit-test" d="M58.340248107910156,609.9800100326538L58.340248107910156,611.6466766993204C58.340248107910156,613.3133433659872,58.340248107910156,616.6466766993204,58.340248107910156,619.9800100326538C58.340248107910156,623.3133433659872,58.340248107910156,626.6466766993204,58.340248107910156,628.3133433659872L58.340248107910156,629.9800100326538" style="pointer-events: stroke; stroke-width: 0.5em; fill: none; stroke: rgb(0, 0, 0); stroke-opacity: 0.001;"/><path id="edge-dropout_3" class="edge-path" d="M58.340248107910156,650.9600105285645L58.340248107910156,652.6266771952311C58.340248107910156,654.2933438618978,58.340248107910156,657.6266771952311,58.340248107910156,660.9600105285645C58.340248107910156,664.2933438618978,58.340248107910156,667.6266771952311,58.340248107910156,669.2933438618978L58.340248107910156,670.9600105285645" style="stroke: rgb(0, 0, 0); stroke-width: 1px; fill: none; marker-end: url(&quot;#arrowhead&quot;);"/><path class="edge-path-hit-test" d="M58.340248107910156,650.9600105285645L58.340248107910156,652.6266771952311C58.340248107910156,654.2933438618978,58.340248107910156,657.6266771952311,58.340248107910156,660.9600105285645C58.340248107910156,664.2933438618978,58.340248107910156,667.6266771952311,58.340248107910156,669.2933438618978L58.340248107910156,670.9600105285645" style="pointer-events: stroke; stroke-width: 0.5em; fill: none; stroke: rgb(0, 0, 0); stroke-opacity: 0.001;"/><path id="edge-output_layer" class="edge-path" d="M58.340248107910156,748.1200122833252L58.340248107910156,749.7866789499918C58.340248107910156,751.4533456166586,58.340248107910156,754.7866789499918,58.340248107910156,758.1200122833252C58.340248107910156,761.4533456166586,58.340248107910156,764.7866789499918,58.340248107910156,766.4533456166586L58.340248107910156,768.1200122833252" style="stroke: rgb(0, 0, 0); stroke-width: 1px; fill: none; marker-end: url(&quot;#arrowhead&quot;);"/><path class="edge-path-hit-test" d="M58.340248107910156,748.1200122833252L58.340248107910156,749.7866789499918C58.340248107910156,751.4533456166586,58.340248107910156,754.7866789499918,58.340248107910156,758.1200122833252C58.340248107910156,761.4533456166586,58.340248107910156,764.7866789499918,58.340248107910156,766.4533456166586L58.340248107910156,768.1200122833252" style="pointer-events: stroke; stroke-width: 0.5em; fill: none; stroke: rgb(0, 0, 0); stroke-opacity: 0.001;"/></g><g id="edge-labels" class="edge-labels"/><g id="nodes" class="nodes"><g id="input-name-input_layer_9" class="node graph-input" style="" transform="translate(19.526872634887695,0)"><g class="node-item graph-item-input" transform="translate(0,0)"><path d="M5,0h67.62675094604492a5,5 0 0 1 5,5v10.980000495910645a5,5 0 0 1 -5,5h-67.62675094604492a5,5 0 0 1 -5,-5v-10.980000495910645a5,5 0 0 1 5,-5z" style="stroke: rgb(0, 0, 0); fill: rgb(238, 238, 238); stroke-width: 0px;"/><text x="6" y="14.642499923706055" style="font-family: -apple-system, BlinkMacSystemFont, &quot;Segoe WPC&quot;, &quot;Segoe UI&quot;, &quot;Ubuntu&quot;, &quot;Droid Sans&quot;, sans-serif, &quot;PingFang SC&quot;; font-size: 11px; text-rendering: geometricprecision; user-select: none;">input_layer_9</text><title>float32</title></g><path class="node node-border" d="M5,0h67.62675094604492a5,5 0 0 1 5,5v10.980000495910645a5,5 0 0 1 -5,5h-67.62675094604492a5,5 0 0 1 -5,-5v-10.980000495910645a5,5 0 0 1 5,-5z" style="stroke: rgb(51, 51, 51); fill: none; stroke-width: 1px;"/></g><g id="node-name-vgg16" class="node graph-node" style="" transform="translate(27.850789785385132,60.980000495910645)"><g class="node-item node-item-type" transform="translate(0,0)"><path d="M5,0h37.94741630554199a0,0 0 0 1 0,0v20.980000495910645a0,0 0 0 1 0,0h-37.94741630554199a5,5 0 0 1 -5,-5v-10.980000495910645a5,5 0 0 1 5,-5z" style="stroke: rgb(0, 0, 0); fill: rgb(0, 0, 0); stroke-width: 0px;"/><text x="6" y="14.642499923706055" style="font-family: -apple-system, BlinkMacSystemFont, &quot;Segoe WPC&quot;, &quot;Segoe UI&quot;, &quot;Ubuntu&quot;, &quot;Droid Sans&quot;, sans-serif, &quot;PingFang SC&quot;; font-size: 11px; text-rendering: geometricprecision; user-select: none; fill: rgb(255, 255, 255);">vgg16</text><title>vgg16</title></g><g class="node-item node-item-type" transform="translate(42.94741630554199,0)"><path d="M0,0h13.031500339508057a5,5 0 0 1 5,5v10.980000495910645a5,5 0 0 1 -5,5h-13.031500339508057a0,0 0 0 1 0,0v-20.980000495910645a0,0 0 0 1 0,0z" style="stroke: rgb(0, 0, 0); fill: rgb(0, 0, 0); stroke-width: 0px;"/><text x="6" y="14.642499923706055" style="font-family: -apple-system, BlinkMacSystemFont, &quot;Segoe WPC&quot;, &quot;Segoe UI&quot;, &quot;Ubuntu&quot;, &quot;Droid Sans&quot;, sans-serif, &quot;PingFang SC&quot;; font-size: 11px; text-rendering: geometricprecision; user-select: none; fill: rgb(255, 255, 255);">ƒ</text><title>Show Function Definition</title></g><line class="node" x1="42.94741630554199" x2="42.94741630554199" y1="0" y2="20.980000495910645" style="stroke: rgb(51, 51, 51); fill: none; stroke-width: 1px;"/><path class="node node-border" d="M5,0h50.97891664505005a5,5 0 0 1 5,5v10.980000495910645a5,5 0 0 1 -5,5h-50.97891664505005a5,5 0 0 1 -5,-5v-10.980000495910645a5,5 0 0 1 5,-5z" style="stroke: rgb(51, 51, 51); fill: none; stroke-width: 1px;"/></g><g id="node-name-global_avg_pooling" class="node graph-node" style="" transform="translate(0.6302490234375,101.96000099182129)"><g class="node-item node-item-type node-item-type-pool" transform="translate(0,0)"><path d="M5,0h105.41999816894531a5,5 0 0 1 5,5v10.980000495910645a5,5 0 0 1 -5,5h-105.41999816894531a5,5 0 0 1 -5,-5v-10.980000495910645a5,5 0 0 1 5,-5z" style="stroke: rgb(0, 0, 0); fill: rgb(51, 85, 51); stroke-width: 0px;"/><text x="6" y="14.642499923706055" style="font-family: -apple-system, BlinkMacSystemFont, &quot;Segoe WPC&quot;, &quot;Segoe UI&quot;, &quot;Ubuntu&quot;, &quot;Droid Sans&quot;, sans-serif, &quot;PingFang SC&quot;; font-size: 11px; text-rendering: geometricprecision; user-select: none; fill: rgb(255, 255, 255);">GlobalAve…Pooling2D</text><title>global_avg_pooling</title></g><path class="node node-border" d="M5,0h105.41999816894531a5,5 0 0 1 5,5v10.980000495910645a5,5 0 0 1 -5,5h-105.41999816894531a5,5 0 0 1 -5,-5v-10.980000495910645a5,5 0 0 1 5,-5z" style="stroke: rgb(51, 51, 51); fill: none; stroke-width: 1px;"/></g><g id="node-name-dropout_1" class="node graph-node" style="" transform="translate(32.57791519165039,142.94000148773193)"><g class="node-item node-item-type node-item-type-dropout" transform="translate(0,0)"><path d="M5,0h41.52466583251953a5,5 0 0 1 5,5v10.980000495910645a5,5 0 0 1 -5,5h-41.52466583251953a5,5 0 0 1 -5,-5v-10.980000495910645a5,5 0 0 1 5,-5z" style="stroke: rgb(0, 0, 0); fill: rgb(69, 71, 112); stroke-width: 0px;"/><text x="6" y="14.642499923706055" style="font-family: -apple-system, BlinkMacSystemFont, &quot;Segoe WPC&quot;, &quot;Segoe UI&quot;, &quot;Ubuntu&quot;, &quot;Droid Sans&quot;, sans-serif, &quot;PingFang SC&quot;; font-size: 11px; text-rendering: geometricprecision; user-select: none; fill: rgb(255, 255, 255);">Dropout</text><title>dropout_1</title></g><path class="node node-border" d="M5,0h41.52466583251953a5,5 0 0 1 5,5v10.980000495910645a5,5 0 0 1 -5,5h-41.52466583251953a5,5 0 0 1 -5,-5v-10.980000495910645a5,5 0 0 1 5,-5z" style="stroke: rgb(51, 51, 51); fill: none; stroke-width: 1px;"/></g><g id="node-name-dense_1" class="node graph-node" style="" transform="translate(13.599372863769531,183.92000198364258)"><g class="node-item node-item-type node-item-type-layer" transform="translate(0,0)"><path d="M5,0h79.48175048828125a5,5 0 0 1 5,5v15.980000495910645a0,0 0 0 1 0,0h-89.48175048828125a0,0 0 0 1 0,0v-15.980000495910645a5,5 0 0 1 5,-5z" style="stroke: rgb(0, 0, 0); fill: rgb(51, 85, 136); stroke-width: 0px;"/><text x="6" y="14.642499923706055" style="font-family: -apple-system, BlinkMacSystemFont, &quot;Segoe WPC&quot;, &quot;Segoe UI&quot;, &quot;Ubuntu&quot;, &quot;Droid Sans&quot;, sans-serif, &quot;PingFang SC&quot;; font-size: 11px; text-rendering: geometricprecision; user-select: none; fill: rgb(255, 255, 255);">Dense</text><title>dense_1</title></g><g class="node-argument-list" transform="translate(0,20.980000495910645)"><path d="M0,0h89.48175048828125a0,0 0 0 1 0,0v35.20000076293945a0,0 0 0 1 0,0h-89.48175048828125a0,0 0 0 1 0,0v-35.20000076293945a0,0 0 0 1 0,0z" style="stroke: rgb(0, 0, 0); fill: rgb(255, 255, 255); stroke-width: 0px;"/><g class="node-argument"><rect rx="3" ry="3" x="3" y="3" width="83.48175048828125" height="14.600000381469727" style="fill: transparent;"/><text xml:space="preserve" x="6" y="13.539999961853027" style="font-family: -apple-system, BlinkMacSystemFont, &quot;Segoe WPC&quot;, &quot;Segoe UI&quot;, &quot;Ubuntu&quot;, &quot;Droid Sans&quot;, sans-serif, &quot;PingFang SC&quot;; font-size: 9px; font-weight: normal; text-rendering: geometricprecision; user-select: none;"><title>float32[512,512]</title><tspan style="font-weight: bold;">kernel</tspan><tspan>〈512×512〉</tspan></text></g><g class="node-argument"><rect rx="3" ry="3" x="3" y="17.600000381469727" width="83.48175048828125" height="14.600000381469727" style="fill: transparent;"/><text xml:space="preserve" x="6" y="28.140000343322754" style="font-family: -apple-system, BlinkMacSystemFont, &quot;Segoe WPC&quot;, &quot;Segoe UI&quot;, &quot;Ubuntu&quot;, &quot;Droid Sans&quot;, sans-serif, &quot;PingFang SC&quot;; font-size: 9px; font-weight: normal; text-rendering: geometricprecision; user-select: none;"><title>float32[512]</title><tspan style="font-weight: bold;">bias</tspan><tspan>〈512〉</tspan></text></g><line class="node" x1="0" x2="89.48175048828125" y1="0" y2="0" style="stroke: rgb(51, 51, 51); fill: none; stroke-width: 1px;"/></g><g class="node-item node-item-type node-item-type-activation" transform="translate(0,56.1800012588501)"><path d="M0,0h89.48175048828125a0,0 0 0 1 0,0v15.980000495910645a5,5 0 0 1 -5,5h-79.48175048828125a5,5 0 0 1 -5,-5v-15.980000495910645a0,0 0 0 1 0,0z" style="stroke: rgb(0, 0, 0); fill: rgb(112, 41, 33); stroke-width: 0px;"/><text x="6" y="14.642499923706055" style="font-family: -apple-system, BlinkMacSystemFont, &quot;Segoe WPC&quot;, &quot;Segoe UI&quot;, &quot;Ubuntu&quot;, &quot;Droid Sans&quot;, sans-serif, &quot;PingFang SC&quot;; font-size: 11px; text-rendering: geometricprecision; user-select: none; fill: rgb(255, 255, 255);">Activation</text></g><line class="node" x1="0" x2="89.48175048828125" y1="56.1800012588501" y2="56.1800012588501" style="stroke: rgb(51, 51, 51); fill: none; stroke-width: 1px;"/><path class="node node-border" d="M5,0h79.48175048828125a5,5 0 0 1 5,5v67.16000175476074a5,5 0 0 1 -5,5h-79.48175048828125a5,5 0 0 1 -5,-5v-67.16000175476074a5,5 0 0 1 5,-5z" style="stroke: rgb(51, 51, 51); fill: none; stroke-width: 1px;"/></g><g id="node-name-batch_norm_1" class="node graph-node" style="" transform="translate(0.7822494506835938,281.0800037384033)"><g class="node-item node-item-type node-item-type-normalization" transform="translate(0,0)"><path d="M5,0h105.11599731445312a5,5 0 0 1 5,5v15.980000495910645a0,0 0 0 1 0,0h-115.11599731445312a0,0 0 0 1 0,0v-15.980000495910645a5,5 0 0 1 5,-5z" style="stroke: rgb(0, 0, 0); fill: rgb(51, 85, 68); stroke-width: 0px;"/><text x="6" y="14.642499923706055" style="font-family: -apple-system, BlinkMacSystemFont, &quot;Segoe WPC&quot;, &quot;Segoe UI&quot;, &quot;Ubuntu&quot;, &quot;Droid Sans&quot;, sans-serif, &quot;PingFang SC&quot;; font-size: 11px; text-rendering: geometricprecision; user-select: none; fill: rgb(255, 255, 255);">BatchNormalization</text><title>batch_norm_1</title></g><g class="node-argument-list" transform="translate(0,20.980000495910645)"><path d="M0,0h115.11599731445312a0,0 0 0 1 0,0v59.400001525878906a5,5 0 0 1 -5,5h-105.11599731445312a5,5 0 0 1 -5,-5v-59.400001525878906a0,0 0 0 1 0,0z" style="stroke: rgb(0, 0, 0); fill: rgb(255, 255, 255); stroke-width: 0px;"/><g class="node-argument"><rect rx="3" ry="3" x="3" y="3" width="109.11599731445312" height="14.600000381469727" style="fill: transparent;"/><text xml:space="preserve" x="6" y="13.539999961853027" style="font-family: -apple-system, BlinkMacSystemFont, &quot;Segoe WPC&quot;, &quot;Segoe UI&quot;, &quot;Ubuntu&quot;, &quot;Droid Sans&quot;, sans-serif, &quot;PingFang SC&quot;; font-size: 9px; font-weight: normal; text-rendering: geometricprecision; user-select: none;"><title>float32[512]</title><tspan style="font-weight: bold;">gamma</tspan><tspan>〈512〉</tspan></text></g><g class="node-argument"><rect rx="3" ry="3" x="3" y="17.600000381469727" width="109.11599731445312" height="14.600000381469727" style="fill: transparent;"/><text xml:space="preserve" x="6" y="28.140000343322754" style="font-family: -apple-system, BlinkMacSystemFont, &quot;Segoe WPC&quot;, &quot;Segoe UI&quot;, &quot;Ubuntu&quot;, &quot;Droid Sans&quot;, sans-serif, &quot;PingFang SC&quot;; font-size: 9px; font-weight: normal; text-rendering: geometricprecision; user-select: none;"><title>float32[512]</title><tspan style="font-weight: bold;">beta</tspan><tspan>〈512〉</tspan></text></g><g class="node-argument"><rect rx="3" ry="3" x="3" y="32.20000076293945" width="109.11599731445312" height="14.600000381469727" style="fill: transparent;"/><text xml:space="preserve" x="6" y="42.74000072479248" style="font-family: -apple-system, BlinkMacSystemFont, &quot;Segoe WPC&quot;, &quot;Segoe UI&quot;, &quot;Ubuntu&quot;, &quot;Droid Sans&quot;, sans-serif, &quot;PingFang SC&quot;; font-size: 9px; font-weight: normal; text-rendering: geometricprecision; user-select: none;"><title>float32[512]</title><tspan style="font-weight: bold;">moving_mean</tspan><tspan>〈512〉</tspan></text></g><g class="node-argument"><rect rx="3" ry="3" x="3" y="46.80000114440918" width="109.11599731445312" height="14.600000381469727" style="fill: transparent;"/><text xml:space="preserve" x="6" y="57.34000110626221" style="font-family: -apple-system, BlinkMacSystemFont, &quot;Segoe WPC&quot;, &quot;Segoe UI&quot;, &quot;Ubuntu&quot;, &quot;Droid Sans&quot;, sans-serif, &quot;PingFang SC&quot;; font-size: 9px; font-weight: normal; text-rendering: geometricprecision; user-select: none;"><title>float32[512]</title><tspan style="font-weight: bold;">moving_variance</tspan><tspan>〈512〉</tspan></text></g><line class="node" x1="0" x2="115.11599731445312" y1="0" y2="0" style="stroke: rgb(51, 51, 51); fill: none; stroke-width: 1px;"/></g><path class="node node-border" d="M5,0h105.11599731445312a5,5 0 0 1 5,5v75.38000202178955a5,5 0 0 1 -5,5h-105.11599731445312a5,5 0 0 1 -5,-5v-75.38000202178955a5,5 0 0 1 5,-5z" style="stroke: rgb(51, 51, 51); fill: none; stroke-width: 1px;"/></g><g id="node-name-dropout_2" class="node graph-node" style="" transform="translate(32.57791519165039,386.46000576019287)"><g class="node-item node-item-type node-item-type-dropout" transform="translate(0,0)"><path d="M5,0h41.52466583251953a5,5 0 0 1 5,5v10.980000495910645a5,5 0 0 1 -5,5h-41.52466583251953a5,5 0 0 1 -5,-5v-10.980000495910645a5,5 0 0 1 5,-5z" style="stroke: rgb(0, 0, 0); fill: rgb(69, 71, 112); stroke-width: 0px;"/><text x="6" y="14.642499923706055" style="font-family: -apple-system, BlinkMacSystemFont, &quot;Segoe WPC&quot;, &quot;Segoe UI&quot;, &quot;Ubuntu&quot;, &quot;Droid Sans&quot;, sans-serif, &quot;PingFang SC&quot;; font-size: 11px; text-rendering: geometricprecision; user-select: none; fill: rgb(255, 255, 255);">Dropout</text><title>dropout_2</title></g><path class="node node-border" d="M5,0h41.52466583251953a5,5 0 0 1 5,5v10.980000495910645a5,5 0 0 1 -5,5h-41.52466583251953a5,5 0 0 1 -5,-5v-10.980000495910645a5,5 0 0 1 5,-5z" style="stroke: rgb(51, 51, 51); fill: none; stroke-width: 1px;"/></g><g id="node-name-dense_2" class="node graph-node" style="" transform="translate(12.817123413085938,427.4400062561035)"><g class="node-item node-item-type node-item-type-layer" transform="translate(0,0)"><path d="M5,0h81.04624938964844a5,5 0 0 1 5,5v15.980000495910645a0,0 0 0 1 0,0h-91.04624938964844a0,0 0 0 1 0,0v-15.980000495910645a5,5 0 0 1 5,-5z" style="stroke: rgb(0, 0, 0); fill: rgb(51, 85, 136); stroke-width: 0px;"/><text x="6" y="14.642499923706055" style="font-family: -apple-system, BlinkMacSystemFont, &quot;Segoe WPC&quot;, &quot;Segoe UI&quot;, &quot;Ubuntu&quot;, &quot;Droid Sans&quot;, sans-serif, &quot;PingFang SC&quot;; font-size: 11px; text-rendering: geometricprecision; user-select: none; fill: rgb(255, 255, 255);">Dense</text><title>dense_2</title></g><g class="node-argument-list" transform="translate(0,20.980000495910645)"><path d="M0,0h91.04624938964844a0,0 0 0 1 0,0v35.20000076293945a0,0 0 0 1 0,0h-91.04624938964844a0,0 0 0 1 0,0v-35.20000076293945a0,0 0 0 1 0,0z" style="stroke: rgb(0, 0, 0); fill: rgb(255, 255, 255); stroke-width: 0px;"/><g class="node-argument"><rect rx="3" ry="3" x="3" y="3" width="85.04624938964844" height="14.600000381469727" style="fill: transparent;"/><text xml:space="preserve" x="6" y="13.539999961853027" style="font-family: -apple-system, BlinkMacSystemFont, &quot;Segoe WPC&quot;, &quot;Segoe UI&quot;, &quot;Ubuntu&quot;, &quot;Droid Sans&quot;, sans-serif, &quot;PingFang SC&quot;; font-size: 9px; font-weight: normal; text-rendering: geometricprecision; user-select: none;"><title>float32[512,256]</title><tspan style="font-weight: bold;">kernel</tspan><tspan>〈512×256〉</tspan></text></g><g class="node-argument"><rect rx="3" ry="3" x="3" y="17.600000381469727" width="85.04624938964844" height="14.600000381469727" style="fill: transparent;"/><text xml:space="preserve" x="6" y="28.140000343322754" style="font-family: -apple-system, BlinkMacSystemFont, &quot;Segoe WPC&quot;, &quot;Segoe UI&quot;, &quot;Ubuntu&quot;, &quot;Droid Sans&quot;, sans-serif, &quot;PingFang SC&quot;; font-size: 9px; font-weight: normal; text-rendering: geometricprecision; user-select: none;"><title>float32[256]</title><tspan style="font-weight: bold;">bias</tspan><tspan>〈256〉</tspan></text></g><line class="node" x1="0" x2="91.04624938964844" y1="0" y2="0" style="stroke: rgb(51, 51, 51); fill: none; stroke-width: 1px;"/></g><g class="node-item node-item-type node-item-type-activation" transform="translate(0,56.1800012588501)"><path d="M0,0h91.04624938964844a0,0 0 0 1 0,0v15.980000495910645a5,5 0 0 1 -5,5h-81.04624938964844a5,5 0 0 1 -5,-5v-15.980000495910645a0,0 0 0 1 0,0z" style="stroke: rgb(0, 0, 0); fill: rgb(112, 41, 33); stroke-width: 0px;"/><text x="6" y="14.642499923706055" style="font-family: -apple-system, BlinkMacSystemFont, &quot;Segoe WPC&quot;, &quot;Segoe UI&quot;, &quot;Ubuntu&quot;, &quot;Droid Sans&quot;, sans-serif, &quot;PingFang SC&quot;; font-size: 11px; text-rendering: geometricprecision; user-select: none; fill: rgb(255, 255, 255);">Activation</text></g><line class="node" x1="0" x2="91.04624938964844" y1="56.1800012588501" y2="56.1800012588501" style="stroke: rgb(51, 51, 51); fill: none; stroke-width: 1px;"/><path class="node node-border" d="M5,0h81.04624938964844a5,5 0 0 1 5,5v67.16000175476074a5,5 0 0 1 -5,5h-81.04624938964844a5,5 0 0 1 -5,-5v-67.16000175476074a5,5 0 0 1 5,-5z" style="stroke: rgb(51, 51, 51); fill: none; stroke-width: 1px;"/></g><g id="node-name-batch_norm_2" class="node graph-node" style="" transform="translate(0,524.6000080108643)"><g class="node-item node-item-type node-item-type-normalization" transform="translate(0,0)"><path d="M5,0h106.68049621582031a5,5 0 0 1 5,5v15.980000495910645a0,0 0 0 1 0,0h-116.68049621582031a0,0 0 0 1 0,0v-15.980000495910645a5,5 0 0 1 5,-5z" style="stroke: rgb(0, 0, 0); fill: rgb(51, 85, 68); stroke-width: 0px;"/><text x="6" y="14.642499923706055" style="font-family: -apple-system, BlinkMacSystemFont, &quot;Segoe WPC&quot;, &quot;Segoe UI&quot;, &quot;Ubuntu&quot;, &quot;Droid Sans&quot;, sans-serif, &quot;PingFang SC&quot;; font-size: 11px; text-rendering: geometricprecision; user-select: none; fill: rgb(255, 255, 255);">BatchNormalization</text><title>batch_norm_2</title></g><g class="node-argument-list" transform="translate(0,20.980000495910645)"><path d="M0,0h116.68049621582031a0,0 0 0 1 0,0v59.400001525878906a5,5 0 0 1 -5,5h-106.68049621582031a5,5 0 0 1 -5,-5v-59.400001525878906a0,0 0 0 1 0,0z" style="stroke: rgb(0, 0, 0); fill: rgb(255, 255, 255); stroke-width: 0px;"/><g class="node-argument"><rect rx="3" ry="3" x="3" y="3" width="110.68049621582031" height="14.600000381469727" style="fill: transparent;"/><text xml:space="preserve" x="6" y="13.539999961853027" style="font-family: -apple-system, BlinkMacSystemFont, &quot;Segoe WPC&quot;, &quot;Segoe UI&quot;, &quot;Ubuntu&quot;, &quot;Droid Sans&quot;, sans-serif, &quot;PingFang SC&quot;; font-size: 9px; font-weight: normal; text-rendering: geometricprecision; user-select: none;"><title>float32[256]</title><tspan style="font-weight: bold;">gamma</tspan><tspan>〈256〉</tspan></text></g><g class="node-argument"><rect rx="3" ry="3" x="3" y="17.600000381469727" width="110.68049621582031" height="14.600000381469727" style="fill: transparent;"/><text xml:space="preserve" x="6" y="28.140000343322754" style="font-family: -apple-system, BlinkMacSystemFont, &quot;Segoe WPC&quot;, &quot;Segoe UI&quot;, &quot;Ubuntu&quot;, &quot;Droid Sans&quot;, sans-serif, &quot;PingFang SC&quot;; font-size: 9px; font-weight: normal; text-rendering: geometricprecision; user-select: none;"><title>float32[256]</title><tspan style="font-weight: bold;">beta</tspan><tspan>〈256〉</tspan></text></g><g class="node-argument"><rect rx="3" ry="3" x="3" y="32.20000076293945" width="110.68049621582031" height="14.600000381469727" style="fill: transparent;"/><text xml:space="preserve" x="6" y="42.74000072479248" style="font-family: -apple-system, BlinkMacSystemFont, &quot;Segoe WPC&quot;, &quot;Segoe UI&quot;, &quot;Ubuntu&quot;, &quot;Droid Sans&quot;, sans-serif, &quot;PingFang SC&quot;; font-size: 9px; font-weight: normal; text-rendering: geometricprecision; user-select: none;"><title>float32[256]</title><tspan style="font-weight: bold;">moving_mean</tspan><tspan>〈256〉</tspan></text></g><g class="node-argument"><rect rx="3" ry="3" x="3" y="46.80000114440918" width="110.68049621582031" height="14.600000381469727" style="fill: transparent;"/><text xml:space="preserve" x="6" y="57.34000110626221" style="font-family: -apple-system, BlinkMacSystemFont, &quot;Segoe WPC&quot;, &quot;Segoe UI&quot;, &quot;Ubuntu&quot;, &quot;Droid Sans&quot;, sans-serif, &quot;PingFang SC&quot;; font-size: 9px; font-weight: normal; text-rendering: geometricprecision; user-select: none;"><title>float32[256]</title><tspan style="font-weight: bold;">moving_variance</tspan><tspan>〈256〉</tspan></text></g><line class="node" x1="0" x2="116.68049621582031" y1="0" y2="0" style="stroke: rgb(51, 51, 51); fill: none; stroke-width: 1px;"/></g><path class="node node-border" d="M5,0h106.68049621582031a5,5 0 0 1 5,5v75.38000202178955a5,5 0 0 1 -5,5h-106.68049621582031a5,5 0 0 1 -5,-5v-75.38000202178955a5,5 0 0 1 5,-5z" style="stroke: rgb(51, 51, 51); fill: none; stroke-width: 1px;"/></g><g id="node-name-dropout_3" class="node graph-node" style="" transform="translate(32.57791519165039,629.9800100326538)"><g class="node-item node-item-type node-item-type-dropout" transform="translate(0,0)"><path d="M5,0h41.52466583251953a5,5 0 0 1 5,5v10.980000495910645a5,5 0 0 1 -5,5h-41.52466583251953a5,5 0 0 1 -5,-5v-10.980000495910645a5,5 0 0 1 5,-5z" style="stroke: rgb(0, 0, 0); fill: rgb(69, 71, 112); stroke-width: 0px;"/><text x="6" y="14.642499923706055" style="font-family: -apple-system, BlinkMacSystemFont, &quot;Segoe WPC&quot;, &quot;Segoe UI&quot;, &quot;Ubuntu&quot;, &quot;Droid Sans&quot;, sans-serif, &quot;PingFang SC&quot;; font-size: 11px; text-rendering: geometricprecision; user-select: none; fill: rgb(255, 255, 255);">Dropout</text><title>dropout_3</title></g><path class="node node-border" d="M5,0h41.52466583251953a5,5 0 0 1 5,5v10.980000495910645a5,5 0 0 1 -5,5h-41.52466583251953a5,5 0 0 1 -5,-5v-10.980000495910645a5,5 0 0 1 5,-5z" style="stroke: rgb(51, 51, 51); fill: none; stroke-width: 1px;"/></g><g id="node-name-output_layer" class="node graph-node" style="" transform="translate(13.280998229980469,670.9600105285645)"><g class="node-item node-item-type node-item-type-layer" transform="translate(0,0)"><path d="M5,0h80.11849975585938a5,5 0 0 1 5,5v15.980000495910645a0,0 0 0 1 0,0h-90.11849975585938a0,0 0 0 1 0,0v-15.980000495910645a5,5 0 0 1 5,-5z" style="stroke: rgb(0, 0, 0); fill: rgb(51, 85, 136); stroke-width: 0px;"/><text x="6" y="14.642499923706055" style="font-family: -apple-system, BlinkMacSystemFont, &quot;Segoe WPC&quot;, &quot;Segoe UI&quot;, &quot;Ubuntu&quot;, &quot;Droid Sans&quot;, sans-serif, &quot;PingFang SC&quot;; font-size: 11px; text-rendering: geometricprecision; user-select: none; fill: rgb(255, 255, 255);">Dense</text><title>output_layer</title></g><g class="node-argument-list" transform="translate(0,20.980000495910645)"><path d="M0,0h90.11849975585938a0,0 0 0 1 0,0v35.20000076293945a0,0 0 0 1 0,0h-90.11849975585938a0,0 0 0 1 0,0v-35.20000076293945a0,0 0 0 1 0,0z" style="stroke: rgb(0, 0, 0); fill: rgb(255, 255, 255); stroke-width: 0px;"/><g class="node-argument"><rect rx="3" ry="3" x="3" y="3" width="84.11849975585938" height="14.600000381469727" style="fill: transparent;"/><text xml:space="preserve" x="6" y="13.539999961853027" style="font-family: -apple-system, BlinkMacSystemFont, &quot;Segoe WPC&quot;, &quot;Segoe UI&quot;, &quot;Ubuntu&quot;, &quot;Droid Sans&quot;, sans-serif, &quot;PingFang SC&quot;; font-size: 9px; font-weight: normal; text-rendering: geometricprecision; user-select: none;"><title>float32[256,141]</title><tspan style="font-weight: bold;">kernel</tspan><tspan>〈256×141〉</tspan></text></g><g class="node-argument"><rect rx="3" ry="3" x="3" y="17.600000381469727" width="84.11849975585938" height="14.600000381469727" style="fill: transparent;"/><text xml:space="preserve" x="6" y="28.140000343322754" style="font-family: -apple-system, BlinkMacSystemFont, &quot;Segoe WPC&quot;, &quot;Segoe UI&quot;, &quot;Ubuntu&quot;, &quot;Droid Sans&quot;, sans-serif, &quot;PingFang SC&quot;; font-size: 9px; font-weight: normal; text-rendering: geometricprecision; user-select: none;"><title>float32[141]</title><tspan style="font-weight: bold;">bias</tspan><tspan>〈141〉</tspan></text></g><line class="node" x1="0" x2="90.11849975585938" y1="0" y2="0" style="stroke: rgb(51, 51, 51); fill: none; stroke-width: 1px;"/></g><g class="node-item node-item-type node-item-type-activation" transform="translate(0,56.1800012588501)"><path d="M0,0h90.11849975585938a0,0 0 0 1 0,0v15.980000495910645a5,5 0 0 1 -5,5h-80.11849975585938a5,5 0 0 1 -5,-5v-15.980000495910645a0,0 0 0 1 0,0z" style="stroke: rgb(0, 0, 0); fill: rgb(112, 41, 33); stroke-width: 0px;"/><text x="6" y="14.642499923706055" style="font-family: -apple-system, BlinkMacSystemFont, &quot;Segoe WPC&quot;, &quot;Segoe UI&quot;, &quot;Ubuntu&quot;, &quot;Droid Sans&quot;, sans-serif, &quot;PingFang SC&quot;; font-size: 11px; text-rendering: geometricprecision; user-select: none; fill: rgb(255, 255, 255);">Activation</text></g><line class="node" x1="0" x2="90.11849975585938" y1="56.1800012588501" y2="56.1800012588501" style="stroke: rgb(51, 51, 51); fill: none; stroke-width: 1px;"/><path class="node node-border" d="M5,0h80.11849975585938a5,5 0 0 1 5,5v67.16000175476074a5,5 0 0 1 -5,5h-80.11849975585938a5,5 0 0 1 -5,-5v-67.16000175476074a5,5 0 0 1 5,-5z" style="stroke: rgb(51, 51, 51); fill: none; stroke-width: 1px;"/></g><g class="node" style="" transform="translate(22.376333236694336,768.1200122833252)"><g class="node-item graph-item-output" transform="translate(0,0)"><path d="M5,0h61.92782974243164a5,5 0 0 1 5,5v10.980000495910645a5,5 0 0 1 -5,5h-61.92782974243164a5,5 0 0 1 -5,-5v-10.980000495910645a5,5 0 0 1 5,-5z" style="stroke: rgb(0, 0, 0); fill: rgb(238, 238, 238); stroke-width: 0px;"/><text x="6" y="14.642499923706055" style="font-family: -apple-system, BlinkMacSystemFont, &quot;Segoe WPC&quot;, &quot;Segoe UI&quot;, &quot;Ubuntu&quot;, &quot;Droid Sans&quot;, sans-serif, &quot;PingFang SC&quot;; font-size: 11px; text-rendering: geometricprecision; user-select: none;">output_layer</text></g><path class="node node-border" d="M5,0h61.92782974243164a5,5 0 0 1 5,5v10.980000495910645a5,5 0 0 1 -5,5h-61.92782974243164a5,5 0 0 1 -5,-5v-10.980000495910645a5,5 0 0 1 5,-5z" style="stroke: rgb(51, 51, 51); fill: none; stroke-width: 1px;"/></g></g></g></svg>